<svg xmlns="http://www.w3.org/2000/svg" xmlns:xlink="http://www.w3.org/1999/xlink" width="500" zoomAndPan="magnify" viewBox="0 0 375 374.999991" height="500" preserveAspectRatio="xMidYMid meet" version="1.0"><defs><g/></defs><g fill="#ffffff" fill-opacity="1"><g transform="translate(82.689505, 190.29323)"><g><path d="M 23.671875 -17.609375 C 25.785156 -14.140625 27.492188 -11.328125 28.796875 -9.171875 C 30.109375 -7.023438 31.109375 -5.363281 31.796875 -4.1875 C 32.492188 -3.007812 33 -2.160156 33.3125 -1.640625 C 33.625 -1.117188 33.796875 -0.789062 33.828125 -0.65625 C 33.867188 -0.53125 33.890625 -0.40625 33.890625 -0.28125 C 33.890625 0.132812 33.503906 0.34375 32.734375 0.34375 C 30.503906 0.34375 28.722656 0.351562 27.390625 0.375 C 26.066406 0.394531 25.007812 0.328125 24.21875 0.171875 C 23.425781 0.015625 22.738281 -0.328125 22.15625 -0.859375 C 21.582031 -1.398438 20.929688 -2.207031 20.203125 -3.28125 C 19.472656 -4.363281 18.519531 -5.828125 17.34375 -7.671875 C 16.175781 -9.523438 14.570312 -11.835938 12.53125 -14.609375 C 12.332031 -14.410156 12.234375 -14.175781 12.234375 -13.90625 C 12.234375 -13.90625 12.242188 -13.835938 12.265625 -13.703125 C 12.285156 -13.578125 12.296875 -13.242188 12.296875 -12.703125 C 12.296875 -11.585938 12.285156 -10.453125 12.265625 -9.296875 C 12.242188 -8.140625 12.234375 -7.003906 12.234375 -5.890625 C 12.234375 -4.546875 12.253906 -3.4375 12.296875 -2.5625 C 12.335938 -1.695312 12.359375 -1.265625 12.359375 -1.265625 C 12.359375 -0.535156 12.15625 -0.113281 11.75 0 C 11.34375 0.113281 10.796875 0.171875 10.109375 0.171875 C 9.453125 0.171875 8.796875 0.171875 8.140625 0.171875 C 7.484375 0.171875 6.828125 0.171875 6.171875 0.171875 C 4.867188 0.171875 3.789062 0.207031 2.9375 0.28125 C 2.09375 0.363281 1.671875 0.40625 1.671875 0.40625 C 0.984375 0.40625 0.640625 -0.015625 0.640625 -0.859375 C 0.640625 -0.859375 0.644531 -1.039062 0.65625 -1.40625 C 0.675781 -1.78125 0.6875 -2.160156 0.6875 -2.546875 C 0.6875 -3.304688 0.664062 -4.050781 0.625 -4.78125 C 0.59375 -5.519531 0.578125 -6.253906 0.578125 -6.984375 C 0.578125 -13.523438 0.578125 -18.976562 0.578125 -23.34375 C 0.578125 -27.71875 0.585938 -31.25 0.609375 -33.9375 C 0.628906 -36.632812 0.675781 -38.675781 0.75 -40.0625 C 0.820312 -41.445312 0.925781 -42.398438 1.0625 -42.921875 C 1.195312 -43.441406 1.378906 -43.722656 1.609375 -43.765625 C 1.847656 -43.804688 2.140625 -43.828125 2.484375 -43.828125 C 6.140625 -43.898438 8.988281 -43.960938 11.03125 -44.015625 C 13.070312 -44.078125 14.539062 -44.117188 15.4375 -44.140625 C 16.34375 -44.160156 16.898438 -44.175781 17.109375 -44.1875 C 17.328125 -44.207031 17.4375 -44.21875 17.4375 -44.21875 C 21.207031 -44.21875 24.320312 -43.570312 26.78125 -42.28125 C 29.25 -41 31.085938 -39.359375 32.296875 -37.359375 C 33.515625 -35.359375 34.125 -33.28125 34.125 -31.125 C 34.125 -27.582031 33.195312 -24.742188 31.34375 -22.609375 C 29.5 -20.472656 26.941406 -18.804688 23.671875 -17.609375 Z M 14.546875 -27.3125 C 14.585938 -27.3125 14.90625 -27.3125 15.5 -27.3125 C 16.09375 -27.3125 16.753906 -27.316406 17.484375 -27.328125 C 18.222656 -27.347656 18.859375 -27.359375 19.390625 -27.359375 C 19.929688 -27.359375 20.1875 -27.359375 20.15625 -27.359375 C 20.957031 -27.359375 21.566406 -27.644531 21.984375 -28.21875 C 22.410156 -28.800781 22.625 -29.457031 22.625 -30.1875 C 22.625 -31.425781 22.273438 -32.351562 21.578125 -32.96875 C 20.890625 -33.582031 20.296875 -33.890625 19.796875 -33.890625 C 19.609375 -33.890625 19.414062 -33.890625 19.21875 -33.890625 C 19.03125 -33.890625 18.835938 -33.890625 18.640625 -33.890625 C 16.566406 -33.890625 15.066406 -33.890625 14.140625 -33.890625 C 13.222656 -33.890625 12.644531 -33.832031 12.40625 -33.71875 C 12.175781 -33.601562 12.0625 -33.375 12.0625 -33.03125 C 12.0625 -33.03125 12.070312 -32.546875 12.09375 -31.578125 C 12.113281 -30.617188 12.125 -29.523438 12.125 -28.296875 C 12.125 -28.253906 12.125 -28.222656 12.125 -28.203125 C 12.125 -28.179688 12.125 -28.171875 12.125 -28.171875 C 12.125 -27.597656 12.410156 -27.3125 12.984375 -27.3125 C 12.984375 -27.3125 13.128906 -27.3125 13.421875 -27.3125 C 13.710938 -27.3125 14.085938 -27.3125 14.546875 -27.3125 Z M 14.546875 -27.3125 "/></g></g></g><g fill="#ffffff" fill-opacity="1"><g transform="translate(119.694798, 190.29323)"><g><path d="M 0.640625 -24.3125 C 0.640625 -24.957031 0.628906 -25.453125 0.609375 -25.796875 C 0.585938 -26.148438 0.796875 -26.398438 1.234375 -26.546875 C 1.679688 -26.703125 2.566406 -26.800781 3.890625 -26.84375 C 5.222656 -26.882812 7.195312 -26.894531 9.8125 -26.875 C 12.425781 -26.851562 15.929688 -26.84375 20.328125 -26.84375 C 20.785156 -26.84375 21.015625 -27.113281 21.015625 -27.65625 L 21.015625 -33.71875 C 21.015625 -34.257812 20.742188 -34.53125 20.203125 -34.53125 C 17.773438 -34.53125 15.945312 -34.53125 14.71875 -34.53125 C 13.488281 -34.53125 12.648438 -34.476562 12.203125 -34.375 C 11.765625 -34.28125 11.535156 -34.125 11.515625 -33.90625 C 11.492188 -33.695312 11.484375 -33.363281 11.484375 -32.90625 C 11.484375 -32.5625 11.503906 -32.148438 11.546875 -31.671875 C 11.585938 -31.191406 11.550781 -30.765625 11.4375 -30.390625 C 11.320312 -30.023438 10.992188 -29.84375 10.453125 -29.84375 C 7.910156 -29.84375 5.960938 -29.84375 4.609375 -29.84375 C 3.265625 -29.84375 2.320312 -29.878906 1.78125 -29.953125 C 1.25 -30.035156 0.929688 -30.171875 0.828125 -30.359375 C 0.734375 -30.554688 0.6875 -30.847656 0.6875 -31.234375 C 0.6875 -31.390625 0.695312 -31.820312 0.71875 -32.53125 C 0.738281 -33.238281 0.757812 -34.082031 0.78125 -35.0625 C 0.800781 -36.050781 0.8125 -37.015625 0.8125 -37.953125 C 0.8125 -38.898438 0.816406 -39.703125 0.828125 -40.359375 C 0.847656 -41.015625 0.859375 -41.359375 0.859375 -41.390625 C 0.859375 -41.585938 0.847656 -41.925781 0.828125 -42.40625 C 0.816406 -42.882812 0.8125 -43.144531 0.8125 -43.1875 C 0.8125 -43.726562 1.078125 -44 1.609375 -44 C 1.609375 -44 1.695312 -44 1.875 -44 C 2.050781 -44 2.210938 -44 2.359375 -44 C 2.671875 -44 2.953125 -44 3.203125 -44 C 3.453125 -44 3.710938 -44 3.984375 -44 C 8.710938 -44 12.691406 -44 15.921875 -44 C 19.160156 -44 21.789062 -43.988281 23.8125 -43.96875 C 25.832031 -43.945312 27.378906 -43.9375 28.453125 -43.9375 C 29.535156 -43.9375 30.296875 -43.925781 30.734375 -43.90625 C 31.179688 -43.882812 31.441406 -43.875 31.515625 -43.875 C 31.597656 -43.875 31.640625 -43.875 31.640625 -43.875 L 31.703125 -43.875 C 32.003906 -43.875 32.234375 -43.769531 32.390625 -43.5625 C 32.546875 -43.351562 32.640625 -42.832031 32.671875 -42 C 32.710938 -41.175781 32.734375 -39.878906 32.734375 -38.109375 C 32.734375 -36.335938 32.734375 -33.890625 32.734375 -30.765625 L 32.734375 -21.484375 L 32.84375 -21.484375 L 32.84375 -1.734375 C 32.84375 -0.847656 32.71875 -0.269531 32.46875 0 C 32.21875 0.269531 31.648438 0.40625 30.765625 0.40625 C 30.765625 0.40625 30.09375 0.394531 28.75 0.375 C 27.40625 0.351562 25.632812 0.34375 23.4375 0.34375 C 22.007812 0.34375 20.59375 0.351562 19.1875 0.375 C 17.789062 0.394531 16.359375 0.40625 14.890625 0.40625 C 11.003906 0.40625 7.117188 0.347656 3.234375 0.234375 C 2.734375 0.191406 2.316406 0.195312 1.984375 0.25 C 1.660156 0.3125 1.398438 0.226562 1.203125 0 C 1.015625 -0.226562 0.878906 -0.773438 0.796875 -1.640625 C 0.722656 -2.503906 0.675781 -3.820312 0.65625 -5.59375 C 0.644531 -7.363281 0.640625 -9.769531 0.640625 -12.8125 C 0.640625 -15.851562 0.640625 -19.6875 0.640625 -24.3125 Z M 11.65625 -11.4375 C 11.65625 -10.394531 11.675781 -9.691406 11.71875 -9.328125 C 11.757812 -8.960938 12.050781 -8.78125 12.59375 -8.78125 C 13.851562 -8.8125 15.109375 -8.828125 16.359375 -8.828125 C 17.617188 -8.828125 18.882812 -8.828125 20.15625 -8.828125 C 20.726562 -8.828125 21.015625 -9.117188 21.015625 -9.703125 C 21.015625 -9.703125 21.003906 -10.066406 20.984375 -10.796875 C 20.960938 -11.523438 20.953125 -12.332031 20.953125 -13.21875 C 20.953125 -14.257812 20.960938 -15.125 20.984375 -15.8125 C 21.003906 -16.507812 21.015625 -16.859375 21.015625 -16.859375 C 21.015625 -17.398438 20.820312 -17.675781 20.4375 -17.6875 C 20.050781 -17.707031 19.414062 -17.71875 18.53125 -17.71875 C 18.144531 -17.71875 17.78125 -17.71875 17.4375 -17.71875 C 17.09375 -17.71875 16.726562 -17.71875 16.34375 -17.71875 C 15.03125 -17.71875 14.101562 -17.71875 13.5625 -17.71875 C 13.03125 -17.71875 12.722656 -17.71875 12.640625 -17.71875 C 12.566406 -17.71875 12.53125 -17.71875 12.53125 -17.71875 C 11.945312 -17.71875 11.65625 -17.453125 11.65625 -16.921875 C 11.65625 -16.921875 11.65625 -16.367188 11.65625 -15.265625 C 11.65625 -14.171875 11.65625 -12.894531 11.65625 -11.4375 Z M 11.65625 -11.4375 "/></g></g></g><g fill="#ffffff" fill-opacity="1"><g transform="translate(155.430021, 190.29323)"><g><path d="M 0.8125 -21.015625 C 0.8125 -21.972656 0.789062 -23.132812 0.75 -24.5 C 0.707031 -25.875 0.675781 -27.300781 0.65625 -28.78125 C 0.644531 -30.257812 0.628906 -31.648438 0.609375 -32.953125 C 0.585938 -34.265625 0.578125 -35.363281 0.578125 -36.25 C 0.578125 -37.375 0.601562 -38.492188 0.65625 -39.609375 C 0.71875 -40.722656 0.769531 -41.816406 0.8125 -42.890625 C 0.8125 -43.585938 1.117188 -43.9375 1.734375 -43.9375 C 1.734375 -43.9375 1.941406 -43.914062 2.359375 -43.875 C 2.785156 -43.84375 3.269531 -43.828125 3.8125 -43.828125 C 8.925781 -43.828125 13.1875 -43.84375 16.59375 -43.875 C 20 -43.914062 22.703125 -43.972656 24.703125 -44.046875 C 26.710938 -44.128906 28.140625 -44.1875 28.984375 -44.21875 C 29.828125 -44.257812 30.25 -44.28125 30.25 -44.28125 C 31.25 -44.28125 31.804688 -44.007812 31.921875 -43.46875 C 32.035156 -42.9375 32.09375 -41.957031 32.09375 -40.53125 C 32.09375 -39.445312 32.09375 -38.632812 32.09375 -38.09375 C 32.09375 -37.5625 32.082031 -37.179688 32.0625 -36.953125 C 32.050781 -36.722656 32.003906 -36.472656 31.921875 -36.203125 C 31.847656 -35.859375 31.753906 -35.566406 31.640625 -35.328125 C 31.523438 -35.097656 31.222656 -34.925781 30.734375 -34.8125 C 30.253906 -34.695312 29.457031 -34.617188 28.34375 -34.578125 C 27.226562 -34.546875 25.613281 -34.53125 23.5 -34.53125 C 22.1875 -34.53125 20.847656 -34.535156 19.484375 -34.546875 C 18.117188 -34.566406 16.878906 -34.597656 15.765625 -34.640625 C 14.648438 -34.679688 13.78125 -34.703125 13.15625 -34.703125 C 12.8125 -34.703125 12.582031 -34.660156 12.46875 -34.578125 C 12.351562 -34.503906 12.285156 -34.265625 12.265625 -33.859375 C 12.242188 -33.453125 12.234375 -32.75 12.234375 -31.75 C 12.234375 -30.25 12.242188 -29.191406 12.265625 -28.578125 C 12.285156 -27.960938 12.351562 -27.597656 12.46875 -27.484375 C 12.582031 -27.367188 12.773438 -27.3125 13.046875 -27.3125 C 13.046875 -27.3125 13.332031 -27.316406 13.90625 -27.328125 C 14.488281 -27.347656 15.085938 -27.359375 15.703125 -27.359375 C 16.585938 -27.359375 17.472656 -27.347656 18.359375 -27.328125 C 19.242188 -27.316406 20.109375 -27.289062 20.953125 -27.25 C 21.921875 -27.25 22.671875 -27.171875 23.203125 -27.015625 C 23.742188 -26.859375 24.128906 -26.429688 24.359375 -25.734375 C 24.585938 -25.046875 24.703125 -23.859375 24.703125 -22.171875 C 24.703125 -20.941406 24.632812 -20.046875 24.5 -19.484375 C 24.375 -18.921875 24.15625 -18.570312 23.84375 -18.4375 C 23.53125 -18.3125 23.125 -18.226562 22.625 -18.1875 C 19.851562 -17.957031 17.742188 -17.820312 16.296875 -17.78125 C 14.859375 -17.738281 13.859375 -17.71875 13.296875 -17.71875 C 12.742188 -17.71875 12.4375 -17.628906 12.375 -17.453125 C 12.320312 -17.285156 12.296875 -16.953125 12.296875 -16.453125 C 12.222656 -12.609375 12.191406 -9.539062 12.203125 -7.25 C 12.222656 -4.957031 12.210938 -3.242188 12.171875 -2.109375 C 12.140625 -0.972656 12.046875 -0.234375 11.890625 0.109375 C 11.734375 0.460938 11.472656 0.617188 11.109375 0.578125 C 10.742188 0.535156 10.21875 0.515625 9.53125 0.515625 C 8.757812 0.515625 7.96875 0.503906 7.15625 0.484375 C 6.351562 0.472656 5.546875 0.46875 4.734375 0.46875 C 3.804688 0.46875 3.050781 0.472656 2.46875 0.484375 C 1.894531 0.503906 1.609375 0.515625 1.609375 0.515625 C 0.960938 0.515625 0.640625 0.09375 0.640625 -0.75 C 0.640625 -0.75 0.644531 -1.671875 0.65625 -3.515625 C 0.675781 -5.367188 0.6875 -8.410156 0.6875 -12.640625 C 0.6875 -14.023438 0.6875 -15.410156 0.6875 -16.796875 C 0.6875 -18.179688 0.6875 -19.585938 0.6875 -21.015625 C 0.6875 -21.015625 0.695312 -21.015625 0.71875 -21.015625 C 0.738281 -21.015625 0.769531 -21.015625 0.8125 -21.015625 Z M 0.8125 -21.015625 "/></g></g></g><g fill="#ffffff" fill-opacity="1"><g transform="translate(190.414758, 190.29323)"><g><path d="M 0.640625 -24.3125 C 0.640625 -24.957031 0.628906 -25.453125 0.609375 -25.796875 C 0.585938 -26.148438 0.796875 -26.398438 1.234375 -26.546875 C 1.679688 -26.703125 2.566406 -26.800781 3.890625 -26.84375 C 5.222656 -26.882812 7.195312 -26.894531 9.8125 -26.875 C 12.425781 -26.851562 15.929688 -26.84375 20.328125 -26.84375 C 20.785156 -26.84375 21.015625 -27.113281 21.015625 -27.65625 L 21.015625 -33.71875 C 21.015625 -34.257812 20.742188 -34.53125 20.203125 -34.53125 C 17.773438 -34.53125 15.945312 -34.53125 14.71875 -34.53125 C 13.488281 -34.53125 12.648438 -34.476562 12.203125 -34.375 C 11.765625 -34.28125 11.535156 -34.125 11.515625 -33.90625 C 11.492188 -33.695312 11.484375 -33.363281 11.484375 -32.90625 C 11.484375 -32.5625 11.503906 -32.148438 11.546875 -31.671875 C 11.585938 -31.191406 11.550781 -30.765625 11.4375 -30.390625 C 11.320312 -30.023438 10.992188 -29.84375 10.453125 -29.84375 C 7.910156 -29.84375 5.960938 -29.84375 4.609375 -29.84375 C 3.265625 -29.84375 2.320312 -29.878906 1.78125 -29.953125 C 1.25 -30.035156 0.929688 -30.171875 0.828125 -30.359375 C 0.734375 -30.554688 0.6875 -30.847656 0.6875 -31.234375 C 0.6875 -31.390625 0.695312 -31.820312 0.71875 -32.53125 C 0.738281 -33.238281 0.757812 -34.082031 0.78125 -35.0625 C 0.800781 -36.050781 0.8125 -37.015625 0.8125 -37.953125 C 0.8125 -38.898438 0.816406 -39.703125 0.828125 -40.359375 C 0.847656 -41.015625 0.859375 -41.359375 0.859375 -41.390625 C 0.859375 -41.585938 0.847656 -41.925781 0.828125 -42.40625 C 0.816406 -42.882812 0.8125 -43.144531 0.8125 -43.1875 C 0.8125 -43.726562 1.078125 -44 1.609375 -44 C 1.609375 -44 1.695312 -44 1.875 -44 C 2.050781 -44 2.210938 -44 2.359375 -44 C 2.671875 -44 2.953125 -44 3.203125 -44 C 3.453125 -44 3.710938 -44 3.984375 -44 C 8.710938 -44 12.691406 -44 15.921875 -44 C 19.160156 -44 21.789062 -43.988281 23.8125 -43.96875 C 25.832031 -43.945312 27.378906 -43.9375 28.453125 -43.9375 C 29.535156 -43.9375 30.296875 -43.925781 30.734375 -43.90625 C 31.179688 -43.882812 31.441406 -43.875 31.515625 -43.875 C 31.597656 -43.875 31.640625 -43.875 31.640625 -43.875 L 31.703125 -43.875 C 32.003906 -43.875 32.234375 -43.769531 32.390625 -43.5625 C 32.546875 -43.351562 32.640625 -42.832031 32.671875 -42 C 32.710938 -41.175781 32.734375 -39.878906 32.734375 -38.109375 C 32.734375 -36.335938 32.734375 -33.890625 32.734375 -30.765625 L 32.734375 -21.484375 L 32.84375 -21.484375 L 32.84375 -1.734375 C 32.84375 -0.847656 32.71875 -0.269531 32.46875 0 C 32.21875 0.269531 31.648438 0.40625 30.765625 0.40625 C 30.765625 0.40625 30.09375 0.394531 28.75 0.375 C 27.40625 0.351562 25.632812 0.34375 23.4375 0.34375 C 22.007812 0.34375 20.59375 0.351562 19.1875 0.375 C 17.789062 0.394531 16.359375 0.40625 14.890625 0.40625 C 11.003906 0.40625 7.117188 0.347656 3.234375 0.234375 C 2.734375 0.191406 2.316406 0.195312 1.984375 0.25 C 1.660156 0.3125 1.398438 0.226562 1.203125 0 C 1.015625 -0.226562 0.878906 -0.773438 0.796875 -1.640625 C 0.722656 -2.503906 0.675781 -3.820312 0.65625 -5.59375 C 0.644531 -7.363281 0.640625 -9.769531 0.640625 -12.8125 C 0.640625 -15.851562 0.640625 -19.6875 0.640625 -24.3125 Z M 11.65625 -11.4375 C 11.65625 -10.394531 11.675781 -9.691406 11.71875 -9.328125 C 11.757812 -8.960938 12.050781 -8.78125 12.59375 -8.78125 C 13.851562 -8.8125 15.109375 -8.828125 16.359375 -8.828125 C 17.617188 -8.828125 18.882812 -8.828125 20.15625 -8.828125 C 20.726562 -8.828125 21.015625 -9.117188 21.015625 -9.703125 C 21.015625 -9.703125 21.003906 -10.066406 20.984375 -10.796875 C 20.960938 -11.523438 20.953125 -12.332031 20.953125 -13.21875 C 20.953125 -14.257812 20.960938 -15.125 20.984375 -15.8125 C 21.003906 -16.507812 21.015625 -16.859375 21.015625 -16.859375 C 21.015625 -17.398438 20.820312 -17.675781 20.4375 -17.6875 C 20.050781 -17.707031 19.414062 -17.71875 18.53125 -17.71875 C 18.144531 -17.71875 17.78125 -17.71875 17.4375 -17.71875 C 17.09375 -17.71875 16.726562 -17.71875 16.34375 -17.71875 C 15.03125 -17.71875 14.101562 -17.71875 13.5625 -17.71875 C 13.03125 -17.71875 12.722656 -17.71875 12.640625 -17.71875 C 12.566406 -17.71875 12.53125 -17.71875 12.53125 -17.71875 C 11.945312 -17.71875 11.65625 -17.453125 11.65625 -16.921875 C 11.65625 -16.921875 11.65625 -16.367188 11.65625 -15.265625 C 11.65625 -14.171875 11.65625 -12.894531 11.65625 -11.4375 Z M 11.65625 -11.4375 "/></g></g></g><g fill="#ffffff" fill-opacity="1"><g transform="translate(226.149981, 190.29323)"><g><path d="M 0.578125 -36.03125 C 0.578125 -37.144531 0.601562 -38.269531 0.65625 -39.40625 C 0.71875 -40.539062 0.769531 -41.6875 0.8125 -42.84375 C 0.8125 -43.570312 1.117188 -43.9375 1.734375 -43.9375 C 1.734375 -43.9375 1.953125 -43.914062 2.390625 -43.875 C 2.835938 -43.84375 3.347656 -43.828125 3.921875 -43.828125 C 10.460938 -43.828125 15.648438 -43.863281 19.484375 -43.9375 C 23.316406 -44.007812 26.054688 -44.082031 27.703125 -44.15625 C 29.359375 -44.238281 30.1875 -44.28125 30.1875 -44.28125 C 31.195312 -44.28125 31.765625 -44.019531 31.890625 -43.5 C 32.023438 -42.976562 32.09375 -42.007812 32.09375 -40.59375 C 32.09375 -39.4375 32.09375 -38.585938 32.09375 -38.046875 C 32.09375 -37.503906 32.082031 -37.117188 32.0625 -36.890625 C 32.050781 -36.660156 32.003906 -36.410156 31.921875 -36.140625 C 31.804688 -35.796875 31.691406 -35.515625 31.578125 -35.296875 C 31.460938 -35.085938 31.15625 -34.925781 30.65625 -34.8125 C 30.15625 -34.695312 29.289062 -34.617188 28.0625 -34.578125 C 26.832031 -34.546875 25.0625 -34.53125 22.75 -34.53125 C 21.59375 -34.53125 20.332031 -34.535156 18.96875 -34.546875 C 17.601562 -34.566406 16.4375 -34.597656 15.46875 -34.640625 C 14.507812 -34.679688 14.03125 -34.703125 14.03125 -34.703125 C 13.945312 -34.703125 13.867188 -34.703125 13.796875 -34.703125 C 13.722656 -34.703125 13.644531 -34.703125 13.5625 -34.703125 C 13.445312 -34.703125 13.332031 -34.703125 13.21875 -34.703125 C 13.101562 -34.703125 13.046875 -34.703125 13.046875 -34.703125 C 12.503906 -34.703125 12.234375 -34.410156 12.234375 -33.828125 C 12.234375 -32.140625 12.234375 -30.84375 12.234375 -29.9375 C 12.234375 -29.03125 12.253906 -28.394531 12.296875 -28.03125 C 12.335938 -27.664062 12.40625 -27.453125 12.5 -27.390625 C 12.59375 -27.335938 12.753906 -27.3125 12.984375 -27.3125 C 12.984375 -27.3125 13.28125 -27.316406 13.875 -27.328125 C 14.476562 -27.347656 15.085938 -27.359375 15.703125 -27.359375 C 17.929688 -27.359375 19.660156 -27.335938 20.890625 -27.296875 C 22.128906 -27.265625 23.015625 -27.101562 23.546875 -26.8125 C 24.085938 -26.53125 24.414062 -26.03125 24.53125 -25.3125 C 24.644531 -24.601562 24.703125 -23.578125 24.703125 -22.234375 C 24.703125 -21.148438 24.65625 -20.3125 24.5625 -19.71875 C 24.46875 -19.125 24.113281 -18.691406 23.5 -18.421875 C 22.882812 -18.148438 21.796875 -17.972656 20.234375 -17.890625 C 18.671875 -17.816406 16.410156 -17.757812 13.453125 -17.71875 C 13.109375 -17.71875 12.847656 -17.707031 12.671875 -17.6875 C 12.492188 -17.675781 12.375 -17.46875 12.3125 -17.0625 C 12.257812 -16.65625 12.234375 -15.894531 12.234375 -14.78125 C 12.234375 -13.664062 12.234375 -12.03125 12.234375 -9.875 C 12.234375 -9.375 12.269531 -9.054688 12.34375 -8.921875 C 12.425781 -8.785156 12.71875 -8.71875 13.21875 -8.71875 C 14.332031 -8.71875 15.609375 -8.726562 17.046875 -8.75 C 18.492188 -8.769531 19.945312 -8.796875 21.40625 -8.828125 C 22.875 -8.867188 24.234375 -8.898438 25.484375 -8.921875 C 26.734375 -8.941406 27.742188 -8.957031 28.515625 -8.96875 C 29.285156 -8.988281 29.671875 -9 29.671875 -9 C 30.285156 -9 30.878906 -8.929688 31.453125 -8.796875 C 32.035156 -8.671875 32.347656 -8.125 32.390625 -7.15625 C 32.429688 -6.425781 32.46875 -5.710938 32.5 -5.015625 C 32.539062 -4.328125 32.5625 -3.632812 32.5625 -2.9375 C 32.5625 -2.09375 32.539062 -1.4375 32.5 -0.96875 C 32.46875 -0.507812 32.273438 -0.164062 31.921875 0.0625 C 31.578125 0.289062 30.953125 0.429688 30.046875 0.484375 C 29.140625 0.546875 27.832031 0.566406 26.125 0.546875 C 24.414062 0.523438 22.15625 0.515625 19.34375 0.515625 C 16.914062 0.515625 14.476562 0.503906 12.03125 0.484375 C 9.59375 0.472656 7.140625 0.46875 4.671875 0.46875 C 3.941406 0.46875 3.28125 0.472656 2.6875 0.484375 C 2.09375 0.503906 1.796875 0.515625 1.796875 0.515625 C 1.328125 0.515625 1.015625 0.414062 0.859375 0.21875 C 0.710938 0.03125 0.640625 -0.3125 0.640625 -0.8125 C 0.640625 -0.925781 0.640625 -1.441406 0.640625 -2.359375 C 0.640625 -3.285156 0.644531 -4.429688 0.65625 -5.796875 C 0.675781 -7.171875 0.6875 -8.625 0.6875 -10.15625 C 0.6875 -11.695312 0.695312 -13.160156 0.71875 -14.546875 C 0.738281 -15.929688 0.75 -17.101562 0.75 -18.0625 C 0.75 -19.03125 0.75 -19.59375 0.75 -19.75 L 0.75 -21.015625 L 0.8125 -21.015625 C 0.8125 -21.972656 0.789062 -23.113281 0.75 -24.4375 C 0.707031 -25.769531 0.675781 -27.15625 0.65625 -28.59375 C 0.644531 -30.039062 0.628906 -31.410156 0.609375 -32.703125 C 0.585938 -33.992188 0.578125 -35.101562 0.578125 -36.03125 Z M 0.578125 -36.03125 "/></g></g></g><g fill="#ffffff" fill-opacity="1"><g transform="translate(261.596551, 190.29323)"><g><path d="M 11.71875 -25.984375 C 11.71875 -25.398438 11.71875 -24.816406 11.71875 -24.234375 C 11.71875 -23.660156 11.71875 -23.085938 11.71875 -22.515625 C 11.71875 -19.285156 11.71875 -16.789062 11.71875 -15.03125 C 11.71875 -13.28125 11.71875 -12.054688 11.71875 -11.359375 C 11.71875 -10.671875 11.71875 -10.269531 11.71875 -10.15625 C 11.71875 -10.039062 11.71875 -9.984375 11.71875 -9.984375 C 11.71875 -9.410156 11.765625 -9.070312 11.859375 -8.96875 C 11.960938 -8.875 12.378906 -8.828125 13.109375 -8.828125 C 13.179688 -8.828125 13.273438 -8.828125 13.390625 -8.828125 C 13.503906 -8.828125 13.601562 -8.828125 13.6875 -8.828125 C 17.957031 -8.828125 21.351562 -8.835938 23.875 -8.859375 C 26.394531 -8.878906 28.289062 -8.84375 29.5625 -8.75 C 30.832031 -8.65625 31.664062 -8.421875 32.0625 -8.046875 C 32.46875 -7.679688 32.660156 -7.125 32.640625 -6.375 C 32.628906 -5.625 32.625 -4.613281 32.625 -3.34375 C 32.625 -2.382812 32.601562 -1.644531 32.5625 -1.125 C 32.519531 -0.601562 32.25 -0.21875 31.75 0.03125 C 31.25 0.28125 30.328125 0.429688 28.984375 0.484375 C 27.640625 0.546875 25.65625 0.554688 23.03125 0.515625 C 20.414062 0.484375 16.953125 0.46875 12.640625 0.46875 C 11.367188 0.46875 10.359375 0.457031 9.609375 0.4375 C 8.859375 0.414062 8.234375 0.40625 7.734375 0.40625 C 7.234375 0.40625 6.695312 0.40625 6.125 0.40625 C 5.507812 0.40625 4.851562 0.40625 4.15625 0.40625 C 3.46875 0.40625 2.832031 0.40625 2.25 0.40625 C 1.75 0.40625 1.398438 0.351562 1.203125 0.25 C 1.015625 0.15625 0.921875 -0.0390625 0.921875 -0.34375 C 0.921875 -0.613281 0.941406 -0.84375 0.984375 -1.03125 C 1.023438 -1.226562 1.046875 -1.578125 1.046875 -2.078125 C 1.046875 -2.078125 1.046875 -2.40625 1.046875 -3.0625 C 1.046875 -3.71875 1.046875 -4.640625 1.046875 -5.828125 C 1.046875 -7.054688 1.046875 -8.285156 1.046875 -9.515625 C 1.046875 -10.753906 1.046875 -11.96875 1.046875 -13.15625 C 1.046875 -19.082031 1.023438 -23.96875 0.984375 -27.8125 C 0.941406 -31.664062 0.878906 -34.679688 0.796875 -36.859375 C 0.722656 -39.035156 0.664062 -40.566406 0.625 -41.453125 C 0.59375 -42.335938 0.578125 -42.78125 0.578125 -42.78125 C 0.578125 -43.550781 0.921875 -43.9375 1.609375 -43.9375 C 1.609375 -43.9375 1.820312 -43.925781 2.25 -43.90625 C 2.675781 -43.882812 3.140625 -43.875 3.640625 -43.875 C 4.523438 -43.875 5.410156 -43.898438 6.296875 -43.953125 C 7.179688 -44.015625 8.066406 -44.046875 8.953125 -44.046875 C 10.066406 -44.046875 10.820312 -43.976562 11.21875 -43.84375 C 11.625 -43.707031 11.859375 -43.34375 11.921875 -42.75 C 11.984375 -42.15625 12.015625 -41.164062 12.015625 -39.78125 C 12.015625 -39.4375 12.003906 -38.800781 11.984375 -37.875 C 11.960938 -36.945312 11.941406 -35.882812 11.921875 -34.6875 C 11.898438 -33.5 11.867188 -32.296875 11.828125 -31.078125 C 11.796875 -29.867188 11.769531 -28.800781 11.75 -27.875 C 11.726562 -26.957031 11.71875 -26.328125 11.71875 -25.984375 Z M 11.71875 -25.984375 "/></g></g></g><g fill="#ffffff" fill-opacity="1"><g transform="translate(85.165379, 219.381537)"><g><path d="M 0.34375 -13.234375 C 0.34375 -13.585938 0.335938 -13.859375 0.328125 -14.046875 C 0.316406 -14.234375 0.429688 -14.367188 0.671875 -14.453125 C 0.910156 -14.546875 1.390625 -14.601562 2.109375 -14.625 C 2.835938 -14.644531 3.914062 -14.648438 5.34375 -14.640625 C 6.769531 -14.628906 8.675781 -14.625 11.0625 -14.625 C 11.3125 -14.625 11.4375 -14.769531 11.4375 -15.0625 L 11.4375 -18.359375 C 11.4375 -18.648438 11.289062 -18.796875 11 -18.796875 C 9.675781 -18.796875 8.679688 -18.796875 8.015625 -18.796875 C 7.347656 -18.796875 6.890625 -18.769531 6.640625 -18.71875 C 6.398438 -18.664062 6.273438 -18.582031 6.265625 -18.46875 C 6.253906 -18.351562 6.25 -18.171875 6.25 -17.921875 C 6.25 -17.734375 6.257812 -17.503906 6.28125 -17.234375 C 6.300781 -16.972656 6.28125 -16.742188 6.21875 -16.546875 C 6.15625 -16.347656 5.976562 -16.25 5.6875 -16.25 C 4.300781 -16.25 3.242188 -16.25 2.515625 -16.25 C 1.785156 -16.25 1.269531 -16.269531 0.96875 -16.3125 C 0.675781 -16.351562 0.503906 -16.425781 0.453125 -16.53125 C 0.398438 -16.632812 0.375 -16.789062 0.375 -17 C 0.375 -17.09375 0.378906 -17.332031 0.390625 -17.71875 C 0.398438 -18.101562 0.410156 -18.5625 0.421875 -19.09375 C 0.429688 -19.632812 0.4375 -20.160156 0.4375 -20.671875 C 0.4375 -21.179688 0.441406 -21.613281 0.453125 -21.96875 C 0.460938 -22.332031 0.46875 -22.523438 0.46875 -22.546875 C 0.46875 -22.648438 0.460938 -22.832031 0.453125 -23.09375 C 0.441406 -23.351562 0.4375 -23.492188 0.4375 -23.515625 C 0.4375 -23.804688 0.582031 -23.953125 0.875 -23.953125 C 0.875 -23.953125 0.921875 -23.953125 1.015625 -23.953125 C 1.109375 -23.953125 1.195312 -23.953125 1.28125 -23.953125 C 1.457031 -23.953125 1.613281 -23.953125 1.75 -23.953125 C 1.882812 -23.953125 2.023438 -23.953125 2.171875 -23.953125 C 4.742188 -23.953125 6.910156 -23.953125 8.671875 -23.953125 C 10.429688 -23.953125 11.863281 -23.945312 12.96875 -23.9375 C 14.070312 -23.925781 14.914062 -23.921875 15.5 -23.921875 C 16.082031 -23.921875 16.492188 -23.914062 16.734375 -23.90625 C 16.984375 -23.894531 17.128906 -23.890625 17.171875 -23.890625 C 17.210938 -23.890625 17.234375 -23.890625 17.234375 -23.890625 L 17.265625 -23.890625 C 17.429688 -23.890625 17.554688 -23.832031 17.640625 -23.71875 C 17.722656 -23.601562 17.773438 -23.316406 17.796875 -22.859375 C 17.816406 -22.410156 17.828125 -21.703125 17.828125 -20.734375 C 17.828125 -19.773438 17.828125 -18.445312 17.828125 -16.75 C 17.828125 -15.03125 17.835938 -13.296875 17.859375 -11.546875 C 17.878906 -9.796875 17.890625 -8.050781 17.890625 -6.3125 L 17.890625 -0.9375 C 17.890625 -0.457031 17.820312 -0.144531 17.6875 0 C 17.550781 0.144531 17.238281 0.21875 16.75 0.21875 C 16.75 0.21875 16.382812 0.210938 15.65625 0.203125 C 14.925781 0.191406 13.960938 0.1875 12.765625 0.1875 C 11.984375 0.1875 11.210938 0.191406 10.453125 0.203125 C 9.691406 0.210938 8.910156 0.21875 8.109375 0.21875 C 5.992188 0.21875 3.878906 0.1875 1.765625 0.125 C 1.441406 0.101562 1.191406 0.0976562 1.015625 0.109375 C 0.835938 0.117188 0.695312 0.015625 0.59375 -0.203125 C 0.488281 -0.421875 0.421875 -0.878906 0.390625 -1.578125 C 0.359375 -2.285156 0.34375 -3.351562 0.34375 -4.78125 C 0.34375 -6.207031 0.34375 -8.113281 0.34375 -10.5 C 0.34375 -11.039062 0.34375 -11.445312 0.34375 -11.71875 C 0.34375 -12 0.34375 -12.242188 0.34375 -12.453125 C 0.34375 -12.660156 0.34375 -12.921875 0.34375 -13.234375 Z M 6.34375 -6.21875 C 6.34375 -5.65625 6.351562 -5.273438 6.375 -5.078125 C 6.394531 -4.878906 6.554688 -4.78125 6.859375 -4.78125 C 7.546875 -4.800781 8.226562 -4.8125 8.90625 -4.8125 C 9.59375 -4.8125 10.28125 -4.8125 10.96875 -4.8125 C 11.28125 -4.8125 11.4375 -4.96875 11.4375 -5.28125 C 11.4375 -5.28125 11.429688 -5.476562 11.421875 -5.875 C 11.410156 -6.269531 11.40625 -6.710938 11.40625 -7.203125 C 11.40625 -7.765625 11.410156 -8.234375 11.421875 -8.609375 C 11.429688 -8.992188 11.4375 -9.1875 11.4375 -9.1875 C 11.4375 -9.476562 11.332031 -9.628906 11.125 -9.640625 C 10.914062 -9.648438 10.570312 -9.65625 10.09375 -9.65625 C 9.882812 -9.65625 9.6875 -9.65625 9.5 -9.65625 C 9.3125 -9.65625 9.109375 -9.65625 8.890625 -9.65625 C 8.179688 -9.65625 7.679688 -9.65625 7.390625 -9.65625 C 7.097656 -9.65625 6.929688 -9.65625 6.890625 -9.65625 C 6.847656 -9.65625 6.828125 -9.65625 6.828125 -9.65625 C 6.503906 -9.65625 6.34375 -9.507812 6.34375 -9.21875 C 6.34375 -9.21875 6.34375 -8.914062 6.34375 -8.3125 C 6.34375 -7.71875 6.34375 -7.019531 6.34375 -6.21875 Z M 6.34375 -6.21875 "/></g></g></g><g fill="#ffffff" fill-opacity="1"><g transform="translate(104.624029, 219.381537)"><g><path d="M 22.15625 -23.921875 L 28.953125 -23.890625 C 28.953125 -20.222656 28.953125 -17.144531 28.953125 -14.65625 C 28.953125 -12.175781 28.957031 -10.160156 28.96875 -8.609375 C 28.976562 -7.054688 28.988281 -5.863281 29 -5.03125 C 29.007812 -4.207031 29.019531 -3.628906 29.03125 -3.296875 C 29.039062 -2.960938 29.046875 -2.773438 29.046875 -2.734375 C 29.046875 -2.691406 29.046875 -2.671875 29.046875 -2.671875 C 29.046875 -1.796875 29.039062 -1.160156 29.03125 -0.765625 C 29.019531 -0.378906 28.96875 -0.140625 28.875 -0.046875 C 28.78125 0.046875 28.609375 0.101562 28.359375 0.125 C 26.828125 0.164062 25.613281 0.195312 24.71875 0.21875 C 23.832031 0.238281 23.335938 0.25 23.234375 0.25 C 23.003906 0.25 22.867188 0.210938 22.828125 0.140625 C 22.785156 0.0664062 22.742188 -0.113281 22.703125 -0.40625 C 22.640625 -0.96875 22.601562 -1.691406 22.59375 -2.578125 C 22.582031 -3.472656 22.585938 -4.617188 22.609375 -6.015625 C 22.628906 -7.410156 22.648438 -9.128906 22.671875 -11.171875 C 22.691406 -13.210938 22.703125 -15.671875 22.703125 -18.546875 C 22.703125 -18.835938 22.539062 -18.984375 22.21875 -18.984375 C 22.21875 -18.984375 22.179688 -18.984375 22.109375 -18.984375 C 22.035156 -18.984375 21.78125 -18.984375 21.34375 -18.984375 C 20.90625 -18.984375 20.140625 -18.984375 19.046875 -18.984375 C 18.398438 -18.984375 18.015625 -18.972656 17.890625 -18.953125 C 17.765625 -18.929688 17.703125 -18.796875 17.703125 -18.546875 C 17.703125 -18.523438 17.707031 -18.226562 17.71875 -17.65625 C 17.726562 -17.09375 17.738281 -16.367188 17.75 -15.484375 C 17.757812 -14.609375 17.769531 -13.679688 17.78125 -12.703125 C 17.789062 -11.734375 17.800781 -10.8125 17.8125 -9.9375 C 17.820312 -9.070312 17.832031 -8.363281 17.84375 -7.8125 C 17.851562 -7.257812 17.859375 -6.972656 17.859375 -6.953125 C 17.859375 -6.148438 17.832031 -5.578125 17.78125 -5.234375 C 17.726562 -4.890625 17.617188 -4.6875 17.453125 -4.625 C 17.285156 -4.5625 17 -4.53125 16.59375 -4.53125 C 15.21875 -4.53125 14.160156 -4.523438 13.421875 -4.515625 C 12.691406 -4.503906 12.179688 -4.535156 11.890625 -4.609375 C 11.609375 -4.679688 11.445312 -4.820312 11.40625 -5.03125 C 11.363281 -5.238281 11.34375 -5.5625 11.34375 -6 C 11.34375 -8.375 11.34375 -10.347656 11.34375 -11.921875 C 11.34375 -13.503906 11.34375 -14.78125 11.34375 -15.75 C 11.34375 -16.71875 11.335938 -17.445312 11.328125 -17.9375 C 11.316406 -18.425781 11.296875 -18.757812 11.265625 -18.9375 C 11.234375 -19.113281 11.195312 -19.203125 11.15625 -19.203125 C 11.113281 -19.203125 11.050781 -19.203125 10.96875 -19.203125 C 9.707031 -19.203125 8.757812 -19.195312 8.125 -19.1875 C 7.488281 -19.175781 7.050781 -19.148438 6.8125 -19.109375 C 6.582031 -19.066406 6.46875 -19 6.46875 -18.90625 C 6.46875 -18.8125 6.46875 -18.691406 6.46875 -18.546875 C 6.40625 -16.765625 6.34375 -15.054688 6.28125 -13.421875 C 6.21875 -11.785156 6.1875 -10.078125 6.1875 -8.296875 C 6.1875 -7.734375 6.191406 -7.03125 6.203125 -6.1875 C 6.210938 -5.351562 6.21875 -4.523438 6.21875 -3.703125 C 6.21875 -2.890625 6.222656 -2.203125 6.234375 -1.640625 C 6.242188 -1.085938 6.25 -0.8125 6.25 -0.8125 C 6.25 -0.539062 6.234375 -0.335938 6.203125 -0.203125 C 6.171875 -0.0664062 6.015625 0.0195312 5.734375 0.0625 C 5.453125 0.101562 4.957031 0.117188 4.25 0.109375 C 3.550781 0.0976562 2.519531 0.09375 1.15625 0.09375 C 0.945312 0.09375 0.785156 0.0546875 0.671875 -0.015625 C 0.554688 -0.0859375 0.476562 -0.285156 0.4375 -0.609375 C 0.394531 -0.929688 0.375 -1.460938 0.375 -2.203125 C 0.375 -2.953125 0.378906 -3.992188 0.390625 -5.328125 C 0.398438 -6.660156 0.40625 -8.375 0.40625 -10.46875 C 0.40625 -11.394531 0.40625 -12.09375 0.40625 -12.5625 C 0.40625 -13.03125 0.398438 -13.410156 0.390625 -13.703125 C 0.378906 -13.992188 0.367188 -14.296875 0.359375 -14.609375 C 0.347656 -14.929688 0.335938 -15.367188 0.328125 -15.921875 C 0.316406 -16.472656 0.3125 -17.265625 0.3125 -18.296875 C 0.3125 -19.328125 0.3125 -20.703125 0.3125 -22.421875 C 0.3125 -22.921875 0.332031 -23.289062 0.375 -23.53125 C 0.414062 -23.769531 0.546875 -23.929688 0.765625 -24.015625 C 0.984375 -24.097656 1.375 -24.132812 1.9375 -24.125 C 2.507812 -24.113281 3.3125 -24.109375 4.34375 -24.109375 C 5.09375 -24.109375 5.695312 -24.101562 6.15625 -24.09375 C 6.625 -24.082031 7.035156 -24.070312 7.390625 -24.0625 C 7.742188 -24.050781 8.125 -24.039062 8.53125 -24.03125 C 8.9375 -24.019531 9.457031 -24.007812 10.09375 -24 C 10.738281 -23.988281 11.585938 -23.984375 12.640625 -23.984375 C 13.921875 -23.984375 14.957031 -23.984375 15.75 -23.984375 C 16.539062 -23.984375 17.164062 -23.976562 17.625 -23.96875 C 18.09375 -23.957031 18.46875 -23.953125 18.75 -23.953125 C 19.03125 -23.953125 19.300781 -23.945312 19.5625 -23.9375 C 19.832031 -23.925781 20.164062 -23.921875 20.5625 -23.921875 C 20.957031 -23.921875 21.488281 -23.921875 22.15625 -23.921875 Z M 22.15625 -23.921875 "/></g></g></g><g fill="#ffffff" fill-opacity="1"><g transform="translate(135.242332, 219.381537)"><g><path d="M 0.34375 -17.140625 C 0.34375 -18.660156 0.347656 -19.882812 0.359375 -20.8125 C 0.367188 -21.75 0.398438 -22.457031 0.453125 -22.9375 C 0.503906 -23.425781 0.59375 -23.757812 0.71875 -23.9375 C 0.84375 -24.113281 1.03125 -24.207031 1.28125 -24.21875 C 1.539062 -24.226562 1.867188 -24.234375 2.265625 -24.234375 C 2.410156 -24.234375 2.816406 -24.226562 3.484375 -24.21875 C 4.160156 -24.207031 4.984375 -24.191406 5.953125 -24.171875 C 6.929688 -24.148438 7.957031 -24.125 9.03125 -24.09375 C 10.113281 -24.0625 11.144531 -24.035156 12.125 -24.015625 C 13.113281 -23.992188 13.945312 -23.976562 14.625 -23.96875 C 15.3125 -23.957031 15.738281 -23.953125 15.90625 -23.953125 C 15.988281 -23.953125 16.070312 -23.953125 16.15625 -23.953125 C 16.238281 -23.953125 16.289062 -23.953125 16.3125 -23.953125 C 16.6875 -23.953125 16.988281 -23.910156 17.21875 -23.828125 C 17.457031 -23.742188 17.628906 -23.546875 17.734375 -23.234375 C 17.835938 -22.921875 17.910156 -22.414062 17.953125 -21.71875 C 17.992188 -21.03125 18.015625 -20.09375 18.015625 -18.90625 C 18.015625 -17.726562 18.015625 -16.210938 18.015625 -14.359375 C 18.015625 -14.359375 18.007812 -14.066406 18 -13.484375 C 17.988281 -12.898438 17.972656 -12.128906 17.953125 -11.171875 C 17.929688 -10.222656 17.910156 -9.203125 17.890625 -8.109375 C 17.867188 -7.015625 17.851562 -5.945312 17.84375 -4.90625 C 17.832031 -3.875 17.816406 -2.972656 17.796875 -2.203125 C 17.773438 -1.441406 17.765625 -0.925781 17.765625 -0.65625 C 17.765625 -0.425781 17.742188 -0.242188 17.703125 -0.109375 C 17.660156 0.0234375 17.46875 0.117188 17.125 0.171875 C 16.789062 0.222656 16.207031 0.253906 15.375 0.265625 C 14.550781 0.273438 13.359375 0.273438 11.796875 0.265625 C 10.242188 0.253906 8.207031 0.25 5.6875 0.25 C 4.582031 0.25 3.613281 0.226562 2.78125 0.1875 C 1.957031 0.144531 1.546875 0.125 1.546875 0.125 C 1.367188 0.125 1.242188 0.128906 1.171875 0.140625 C 1.097656 0.148438 1.019531 0.15625 0.9375 0.15625 C 0.519531 0.15625 0.3125 -0.0507812 0.3125 -0.46875 C 0.3125 -0.46875 0.332031 -1.007812 0.375 -2.09375 C 0.414062 -3.1875 0.4375 -4.664062 0.4375 -6.53125 C 0.4375 -8.300781 0.421875 -10.070312 0.390625 -11.84375 C 0.359375 -13.613281 0.34375 -15.378906 0.34375 -17.140625 Z M 6.703125 -5.4375 C 6.703125 -5.289062 6.710938 -5.179688 6.734375 -5.109375 C 6.753906 -5.035156 6.867188 -4.984375 7.078125 -4.953125 C 7.285156 -4.921875 7.675781 -4.90625 8.25 -4.90625 C 8.820312 -4.90625 9.675781 -4.90625 10.8125 -4.90625 C 10.976562 -4.90625 11.097656 -4.914062 11.171875 -4.9375 C 11.242188 -4.957031 11.289062 -5.0625 11.3125 -5.25 C 11.332031 -5.4375 11.34375 -5.769531 11.34375 -6.25 C 11.34375 -6.738281 11.34375 -7.429688 11.34375 -8.328125 C 11.34375 -8.921875 11.34375 -9.507812 11.34375 -10.09375 C 11.34375 -10.675781 11.34375 -11.265625 11.34375 -11.859375 C 11.34375 -12.023438 11.34375 -12.195312 11.34375 -12.375 C 11.34375 -12.550781 11.34375 -12.722656 11.34375 -12.890625 C 11.34375 -13.242188 11.34375 -13.601562 11.34375 -13.96875 C 11.34375 -14.34375 11.34375 -14.707031 11.34375 -15.0625 C 11.34375 -16.164062 11.351562 -17.023438 11.375 -17.640625 C 11.394531 -18.265625 11.40625 -18.578125 11.40625 -18.578125 C 11.40625 -18.722656 11.375 -18.820312 11.3125 -18.875 C 11.25 -18.925781 11.019531 -18.953125 10.625 -18.953125 C 10.226562 -18.953125 9.535156 -18.953125 8.546875 -18.953125 C 8.191406 -18.953125 7.894531 -18.960938 7.65625 -18.984375 C 7.414062 -19.003906 7.234375 -18.945312 7.109375 -18.8125 C 6.984375 -18.675781 6.890625 -18.367188 6.828125 -17.890625 C 6.765625 -17.410156 6.722656 -16.675781 6.703125 -15.6875 C 6.679688 -14.695312 6.675781 -13.375 6.6875 -11.71875 C 6.695312 -10.070312 6.703125 -7.976562 6.703125 -5.4375 Z M 6.703125 -5.4375 "/></g></g></g><g fill="#ffffff" fill-opacity="1"><g transform="translate(154.826729, 219.381537)"><g><path d="M 12.890625 -9.59375 C 14.046875 -7.707031 14.976562 -6.175781 15.6875 -5 C 16.394531 -3.820312 16.9375 -2.914062 17.3125 -2.28125 C 17.695312 -1.644531 17.972656 -1.179688 18.140625 -0.890625 C 18.304688 -0.609375 18.398438 -0.429688 18.421875 -0.359375 C 18.441406 -0.285156 18.453125 -0.21875 18.453125 -0.15625 C 18.453125 0.0703125 18.242188 0.1875 17.828125 0.1875 C 16.609375 0.1875 15.632812 0.191406 14.90625 0.203125 C 14.1875 0.210938 13.613281 0.175781 13.1875 0.09375 C 12.757812 0.0078125 12.382812 -0.175781 12.0625 -0.46875 C 11.75 -0.757812 11.394531 -1.195312 11 -1.78125 C 10.601562 -2.375 10.082031 -3.171875 9.4375 -4.171875 C 8.800781 -5.179688 7.929688 -6.441406 6.828125 -7.953125 C 6.722656 -7.847656 6.671875 -7.722656 6.671875 -7.578125 C 6.671875 -7.578125 6.675781 -7.539062 6.6875 -7.46875 C 6.695312 -7.394531 6.703125 -7.210938 6.703125 -6.921875 C 6.703125 -6.304688 6.695312 -5.6875 6.6875 -5.0625 C 6.675781 -4.4375 6.671875 -3.816406 6.671875 -3.203125 C 6.671875 -2.472656 6.679688 -1.867188 6.703125 -1.390625 C 6.722656 -0.921875 6.734375 -0.6875 6.734375 -0.6875 C 6.734375 -0.289062 6.617188 -0.0625 6.390625 0 C 6.171875 0.0625 5.875 0.09375 5.5 0.09375 C 5.144531 0.09375 4.785156 0.09375 4.421875 0.09375 C 4.066406 0.09375 3.710938 0.09375 3.359375 0.09375 C 2.648438 0.09375 2.0625 0.113281 1.59375 0.15625 C 1.132812 0.195312 0.90625 0.21875 0.90625 0.21875 C 0.53125 0.21875 0.34375 -0.0078125 0.34375 -0.46875 C 0.34375 -0.46875 0.347656 -0.566406 0.359375 -0.765625 C 0.367188 -0.960938 0.375 -1.171875 0.375 -1.390625 C 0.375 -1.804688 0.363281 -2.210938 0.34375 -2.609375 C 0.320312 -3.003906 0.3125 -3.398438 0.3125 -3.796875 C 0.3125 -7.359375 0.3125 -10.328125 0.3125 -12.703125 C 0.3125 -15.085938 0.316406 -17.015625 0.328125 -18.484375 C 0.335938 -19.953125 0.363281 -21.0625 0.40625 -21.8125 C 0.445312 -22.570312 0.503906 -23.09375 0.578125 -23.375 C 0.648438 -23.65625 0.75 -23.804688 0.875 -23.828125 C 1 -23.847656 1.160156 -23.859375 1.359375 -23.859375 C 3.347656 -23.898438 4.894531 -23.9375 6 -23.96875 C 7.113281 -24 7.914062 -24.019531 8.40625 -24.03125 C 8.894531 -24.039062 9.195312 -24.050781 9.3125 -24.0625 C 9.4375 -24.070312 9.5 -24.078125 9.5 -24.078125 C 11.550781 -24.078125 13.242188 -23.722656 14.578125 -23.015625 C 15.921875 -22.316406 16.921875 -21.421875 17.578125 -20.328125 C 18.242188 -19.242188 18.578125 -18.113281 18.578125 -16.9375 C 18.578125 -15.007812 18.070312 -13.460938 17.0625 -12.296875 C 16.0625 -11.140625 14.671875 -10.238281 12.890625 -9.59375 Z M 7.921875 -14.875 C 7.941406 -14.875 8.113281 -14.875 8.4375 -14.875 C 8.757812 -14.875 9.117188 -14.878906 9.515625 -14.890625 C 9.921875 -14.898438 10.269531 -14.90625 10.5625 -14.90625 C 10.851562 -14.90625 10.988281 -14.90625 10.96875 -14.90625 C 11.40625 -14.90625 11.738281 -15.0625 11.96875 -15.375 C 12.207031 -15.6875 12.328125 -16.039062 12.328125 -16.4375 C 12.328125 -17.113281 12.132812 -17.617188 11.75 -17.953125 C 11.375 -18.285156 11.050781 -18.453125 10.78125 -18.453125 C 10.675781 -18.453125 10.570312 -18.453125 10.46875 -18.453125 C 10.363281 -18.453125 10.257812 -18.453125 10.15625 -18.453125 C 9.019531 -18.453125 8.203125 -18.453125 7.703125 -18.453125 C 7.203125 -18.453125 6.890625 -18.421875 6.765625 -18.359375 C 6.640625 -18.296875 6.578125 -18.171875 6.578125 -17.984375 C 6.578125 -17.984375 6.582031 -17.71875 6.59375 -17.1875 C 6.601562 -16.664062 6.609375 -16.070312 6.609375 -15.40625 C 6.609375 -15.382812 6.609375 -15.367188 6.609375 -15.359375 C 6.609375 -15.347656 6.609375 -15.34375 6.609375 -15.34375 C 6.609375 -15.03125 6.765625 -14.875 7.078125 -14.875 C 7.078125 -14.875 7.15625 -14.875 7.3125 -14.875 C 7.46875 -14.875 7.671875 -14.875 7.921875 -14.875 Z M 7.921875 -14.875 "/></g></g></g><g fill="#ffffff" fill-opacity="1"><g transform="translate(174.976961, 219.381537)"><g><path d="M 0.5625 -1.1875 C 0.5625 -1.1875 0.550781 -1.507812 0.53125 -2.15625 C 0.507812 -2.8125 0.488281 -3.679688 0.46875 -4.765625 C 0.445312 -5.859375 0.421875 -7.082031 0.390625 -8.4375 C 0.359375 -9.789062 0.335938 -11.1875 0.328125 -12.625 C 0.316406 -14.0625 0.3125 -15.453125 0.3125 -16.796875 C 0.3125 -18.148438 0.328125 -19.367188 0.359375 -20.453125 C 0.390625 -21.546875 0.4375 -22.410156 0.5 -23.046875 C 0.5625 -23.691406 0.644531 -24.015625 0.75 -24.015625 C 0.75 -24.015625 0.882812 -24.019531 1.15625 -24.03125 C 1.4375 -24.039062 1.769531 -24.054688 2.15625 -24.078125 C 2.539062 -24.097656 2.910156 -24.109375 3.265625 -24.109375 C 4.085938 -24.109375 4.734375 -24.097656 5.203125 -24.078125 C 5.671875 -24.054688 6.019531 -23.957031 6.25 -23.78125 C 6.488281 -23.601562 6.640625 -23.296875 6.703125 -22.859375 C 6.765625 -22.429688 6.789062 -21.820312 6.78125 -21.03125 C 6.769531 -20.238281 6.765625 -19.203125 6.765625 -17.921875 C 6.765625 -15.742188 6.742188 -13.566406 6.703125 -11.390625 C 6.660156 -9.222656 6.617188 -7.050781 6.578125 -4.875 C 6.546875 -3.570312 6.535156 -2.554688 6.546875 -1.828125 C 6.566406 -1.109375 6.507812 -0.585938 6.375 -0.265625 C 6.25 0.0546875 5.988281 0.257812 5.59375 0.34375 C 5.195312 0.425781 4.578125 0.46875 3.734375 0.46875 C 3.335938 0.46875 2.945312 0.457031 2.5625 0.4375 C 2.175781 0.414062 1.773438 0.40625 1.359375 0.40625 L 1.328125 0.40625 C 1.003906 0.40625 0.796875 0.3125 0.703125 0.125 C 0.609375 -0.0625 0.5625 -0.289062 0.5625 -0.5625 C 0.5625 -0.664062 0.5625 -0.769531 0.5625 -0.875 C 0.5625 -0.976562 0.5625 -1.082031 0.5625 -1.1875 Z M 0.5625 -1.1875 "/></g></g></g><g fill="#ffffff" fill-opacity="1"><g transform="translate(183.338839, 219.381537)"><g><path d="M 22.15625 -23.921875 L 28.953125 -23.890625 C 28.953125 -20.222656 28.953125 -17.144531 28.953125 -14.65625 C 28.953125 -12.175781 28.957031 -10.160156 28.96875 -8.609375 C 28.976562 -7.054688 28.988281 -5.863281 29 -5.03125 C 29.007812 -4.207031 29.019531 -3.628906 29.03125 -3.296875 C 29.039062 -2.960938 29.046875 -2.773438 29.046875 -2.734375 C 29.046875 -2.691406 29.046875 -2.671875 29.046875 -2.671875 C 29.046875 -1.796875 29.039062 -1.160156 29.03125 -0.765625 C 29.019531 -0.378906 28.96875 -0.140625 28.875 -0.046875 C 28.78125 0.046875 28.609375 0.101562 28.359375 0.125 C 26.828125 0.164062 25.613281 0.195312 24.71875 0.21875 C 23.832031 0.238281 23.335938 0.25 23.234375 0.25 C 23.003906 0.25 22.867188 0.210938 22.828125 0.140625 C 22.785156 0.0664062 22.742188 -0.113281 22.703125 -0.40625 C 22.640625 -0.96875 22.601562 -1.691406 22.59375 -2.578125 C 22.582031 -3.472656 22.585938 -4.617188 22.609375 -6.015625 C 22.628906 -7.410156 22.648438 -9.128906 22.671875 -11.171875 C 22.691406 -13.210938 22.703125 -15.671875 22.703125 -18.546875 C 22.703125 -18.835938 22.539062 -18.984375 22.21875 -18.984375 C 22.21875 -18.984375 22.179688 -18.984375 22.109375 -18.984375 C 22.035156 -18.984375 21.78125 -18.984375 21.34375 -18.984375 C 20.90625 -18.984375 20.140625 -18.984375 19.046875 -18.984375 C 18.398438 -18.984375 18.015625 -18.972656 17.890625 -18.953125 C 17.765625 -18.929688 17.703125 -18.796875 17.703125 -18.546875 C 17.703125 -18.523438 17.707031 -18.226562 17.71875 -17.65625 C 17.726562 -17.09375 17.738281 -16.367188 17.75 -15.484375 C 17.757812 -14.609375 17.769531 -13.679688 17.78125 -12.703125 C 17.789062 -11.734375 17.800781 -10.8125 17.8125 -9.9375 C 17.820312 -9.070312 17.832031 -8.363281 17.84375 -7.8125 C 17.851562 -7.257812 17.859375 -6.972656 17.859375 -6.953125 C 17.859375 -6.148438 17.832031 -5.578125 17.78125 -5.234375 C 17.726562 -4.890625 17.617188 -4.6875 17.453125 -4.625 C 17.285156 -4.5625 17 -4.53125 16.59375 -4.53125 C 15.21875 -4.53125 14.160156 -4.523438 13.421875 -4.515625 C 12.691406 -4.503906 12.179688 -4.535156 11.890625 -4.609375 C 11.609375 -4.679688 11.445312 -4.820312 11.40625 -5.03125 C 11.363281 -5.238281 11.34375 -5.5625 11.34375 -6 C 11.34375 -8.375 11.34375 -10.347656 11.34375 -11.921875 C 11.34375 -13.503906 11.34375 -14.78125 11.34375 -15.75 C 11.34375 -16.71875 11.335938 -17.445312 11.328125 -17.9375 C 11.316406 -18.425781 11.296875 -18.757812 11.265625 -18.9375 C 11.234375 -19.113281 11.195312 -19.203125 11.15625 -19.203125 C 11.113281 -19.203125 11.050781 -19.203125 10.96875 -19.203125 C 9.707031 -19.203125 8.757812 -19.195312 8.125 -19.1875 C 7.488281 -19.175781 7.050781 -19.148438 6.8125 -19.109375 C 6.582031 -19.066406 6.46875 -19 6.46875 -18.90625 C 6.46875 -18.8125 6.46875 -18.691406 6.46875 -18.546875 C 6.40625 -16.765625 6.34375 -15.054688 6.28125 -13.421875 C 6.21875 -11.785156 6.1875 -10.078125 6.1875 -8.296875 C 6.1875 -7.734375 6.191406 -7.03125 6.203125 -6.1875 C 6.210938 -5.351562 6.21875 -4.523438 6.21875 -3.703125 C 6.21875 -2.890625 6.222656 -2.203125 6.234375 -1.640625 C 6.242188 -1.085938 6.25 -0.8125 6.25 -0.8125 C 6.25 -0.539062 6.234375 -0.335938 6.203125 -0.203125 C 6.171875 -0.0664062 6.015625 0.0195312 5.734375 0.0625 C 5.453125 0.101562 4.957031 0.117188 4.25 0.109375 C 3.550781 0.0976562 2.519531 0.09375 1.15625 0.09375 C 0.945312 0.09375 0.785156 0.0546875 0.671875 -0.015625 C 0.554688 -0.0859375 0.476562 -0.285156 0.4375 -0.609375 C 0.394531 -0.929688 0.375 -1.460938 0.375 -2.203125 C 0.375 -2.953125 0.378906 -3.992188 0.390625 -5.328125 C 0.398438 -6.660156 0.40625 -8.375 0.40625 -10.46875 C 0.40625 -11.394531 0.40625 -12.09375 0.40625 -12.5625 C 0.40625 -13.03125 0.398438 -13.410156 0.390625 -13.703125 C 0.378906 -13.992188 0.367188 -14.296875 0.359375 -14.609375 C 0.347656 -14.929688 0.335938 -15.367188 0.328125 -15.921875 C 0.316406 -16.472656 0.3125 -17.265625 0.3125 -18.296875 C 0.3125 -19.328125 0.3125 -20.703125 0.3125 -22.421875 C 0.3125 -22.921875 0.332031 -23.289062 0.375 -23.53125 C 0.414062 -23.769531 0.546875 -23.929688 0.765625 -24.015625 C 0.984375 -24.097656 1.375 -24.132812 1.9375 -24.125 C 2.507812 -24.113281 3.3125 -24.109375 4.34375 -24.109375 C 5.09375 -24.109375 5.695312 -24.101562 6.15625 -24.09375 C 6.625 -24.082031 7.035156 -24.070312 7.390625 -24.0625 C 7.742188 -24.050781 8.125 -24.039062 8.53125 -24.03125 C 8.9375 -24.019531 9.457031 -24.007812 10.09375 -24 C 10.738281 -23.988281 11.585938 -23.984375 12.640625 -23.984375 C 13.921875 -23.984375 14.957031 -23.984375 15.75 -23.984375 C 16.539062 -23.984375 17.164062 -23.976562 17.625 -23.96875 C 18.09375 -23.957031 18.46875 -23.953125 18.75 -23.953125 C 19.03125 -23.953125 19.300781 -23.945312 19.5625 -23.9375 C 19.832031 -23.925781 20.164062 -23.921875 20.5625 -23.921875 C 20.957031 -23.921875 21.488281 -23.921875 22.15625 -23.921875 Z M 22.15625 -23.921875 "/></g></g></g><g fill="#ffffff" fill-opacity="1"><g transform="translate(213.957142, 219.381537)"><g><path d="M 4.5625 0.25 C 4.289062 0.25 4.085938 0.25 3.953125 0.25 C 3.828125 0.25 3.71875 0.253906 3.625 0.265625 C 3.53125 0.273438 3.367188 0.28125 3.140625 0.28125 C 2.910156 0.28125 2.546875 0.28125 2.046875 0.28125 C 1.410156 0.28125 0.976562 0.265625 0.75 0.234375 C 0.519531 0.203125 0.390625 0.03125 0.359375 -0.28125 C 0.328125 -0.59375 0.3125 -1.191406 0.3125 -2.078125 C 0.3125 -2.867188 0.328125 -3.453125 0.359375 -3.828125 C 0.390625 -4.210938 0.453125 -4.46875 0.546875 -4.59375 C 0.640625 -4.71875 0.78125 -4.78125 0.96875 -4.78125 C 0.96875 -4.78125 1.101562 -4.773438 1.375 -4.765625 C 1.65625 -4.753906 1.992188 -4.75 2.390625 -4.75 C 2.992188 -4.75 3.640625 -4.757812 4.328125 -4.78125 C 5.023438 -4.800781 5.539062 -4.8125 5.875 -4.8125 C 6.0625 -4.8125 6.207031 -4.785156 6.3125 -4.734375 C 6.414062 -4.679688 6.488281 -4.515625 6.53125 -4.234375 C 6.582031 -3.960938 6.613281 -3.53125 6.625 -2.9375 C 6.632812 -2.34375 6.640625 -1.488281 6.640625 -0.375 C 6.640625 0.0195312 6.503906 0.222656 6.234375 0.234375 C 5.972656 0.242188 5.414062 0.25 4.5625 0.25 Z M 4.5625 0.25 "/></g></g></g><g fill="#ffffff" fill-opacity="1"><g transform="translate(222.161841, 219.381537)"><g><path d="M 0.53125 -12.515625 C 0.53125 -13.285156 0.53125 -14.046875 0.53125 -14.796875 C 0.53125 -15.554688 0.53125 -16.328125 0.53125 -17.109375 C 0.53125 -18.648438 0.515625 -19.890625 0.484375 -20.828125 C 0.453125 -21.773438 0.492188 -22.484375 0.609375 -22.953125 C 0.722656 -23.429688 0.984375 -23.75 1.390625 -23.90625 C 1.804688 -24.0625 2.445312 -24.140625 3.3125 -24.140625 C 4.1875 -24.140625 5.367188 -24.140625 6.859375 -24.140625 C 9.328125 -24.140625 11.320312 -23.972656 12.84375 -23.640625 C 14.363281 -23.304688 15.519531 -22.800781 16.3125 -22.125 C 17.113281 -21.457031 17.671875 -20.613281 17.984375 -19.59375 C 18.296875 -18.582031 18.46875 -17.398438 18.5 -16.046875 C 18.53125 -14.691406 18.546875 -13.15625 18.546875 -11.4375 C 18.546875 -10.394531 18.523438 -9.335938 18.484375 -8.265625 C 18.441406 -7.203125 18.390625 -6.132812 18.328125 -5.0625 C 18.265625 -3.925781 17.867188 -2.984375 17.140625 -2.234375 C 16.421875 -1.492188 15.492188 -0.910156 14.359375 -0.484375 C 13.234375 -0.0546875 12.023438 0.242188 10.734375 0.421875 C 9.441406 0.597656 8.210938 0.6875 7.046875 0.6875 C 6.222656 0.6875 5.414062 0.664062 4.625 0.625 C 3.84375 0.582031 2.921875 0.550781 1.859375 0.53125 C 1.566406 0.53125 1.316406 0.5 1.109375 0.4375 C 0.910156 0.375 0.753906 0.203125 0.640625 -0.078125 C 0.523438 -0.359375 0.441406 -0.835938 0.390625 -1.515625 C 0.335938 -2.203125 0.3125 -3.175781 0.3125 -4.4375 C 0.3125 -4.582031 0.316406 -4.941406 0.328125 -5.515625 C 0.335938 -6.085938 0.351562 -6.757812 0.375 -7.53125 C 0.394531 -8.3125 0.421875 -9.078125 0.453125 -9.828125 C 0.484375 -10.585938 0.503906 -11.21875 0.515625 -11.71875 C 0.523438 -12.226562 0.53125 -12.492188 0.53125 -12.515625 Z M 7.109375 -15.53125 C 7.109375 -14.945312 7.109375 -14.367188 7.109375 -13.796875 C 7.109375 -13.234375 7.109375 -12.671875 7.109375 -12.109375 C 7.109375 -12.046875 7.109375 -11.972656 7.109375 -11.890625 C 7.109375 -11.816406 7.109375 -11.738281 7.109375 -11.65625 C 7.109375 -10.03125 7.109375 -8.785156 7.109375 -7.921875 C 7.109375 -7.066406 7.109375 -6.457031 7.109375 -6.09375 C 7.109375 -5.738281 7.132812 -5.535156 7.1875 -5.484375 C 7.238281 -5.429688 7.304688 -5.40625 7.390625 -5.40625 C 8.691406 -5.40625 9.65625 -5.625 10.28125 -6.0625 C 10.90625 -6.507812 11.3125 -7.101562 11.5 -7.84375 C 11.6875 -8.582031 11.78125 -9.425781 11.78125 -10.375 C 11.78125 -11.25 11.738281 -12.144531 11.65625 -13.0625 C 11.570312 -13.976562 11.476562 -14.863281 11.375 -15.71875 C 11.3125 -16.238281 11.179688 -16.734375 10.984375 -17.203125 C 10.785156 -17.679688 10.414062 -18.070312 9.875 -18.375 C 9.34375 -18.675781 8.546875 -18.828125 7.484375 -18.828125 C 7.335938 -18.828125 7.238281 -18.785156 7.1875 -18.703125 C 7.132812 -18.617188 7.109375 -18.351562 7.109375 -17.90625 C 7.109375 -17.457031 7.109375 -16.664062 7.109375 -15.53125 Z M 7.109375 -15.53125 "/></g></g></g><g fill="#ffffff" fill-opacity="1"><g transform="translate(242.280641, 219.381537)"><g><path d="M 0.3125 -19.609375 C 0.3125 -20.222656 0.328125 -20.835938 0.359375 -21.453125 C 0.390625 -22.078125 0.414062 -22.703125 0.4375 -23.328125 C 0.4375 -23.722656 0.601562 -23.921875 0.9375 -23.921875 C 0.9375 -23.921875 1.054688 -23.910156 1.296875 -23.890625 C 1.546875 -23.867188 1.828125 -23.859375 2.140625 -23.859375 C 5.703125 -23.859375 8.523438 -23.878906 10.609375 -23.921875 C 12.691406 -23.960938 14.179688 -24.003906 15.078125 -24.046875 C 15.984375 -24.085938 16.4375 -24.109375 16.4375 -24.109375 C 16.988281 -24.109375 17.300781 -23.96875 17.375 -23.6875 C 17.445312 -23.40625 17.484375 -22.875 17.484375 -22.09375 C 17.484375 -21.46875 17.484375 -21.007812 17.484375 -20.71875 C 17.484375 -20.425781 17.476562 -20.21875 17.46875 -20.09375 C 17.457031 -19.96875 17.429688 -19.832031 17.390625 -19.6875 C 17.328125 -19.488281 17.265625 -19.332031 17.203125 -19.21875 C 17.140625 -19.101562 16.96875 -19.015625 16.6875 -18.953125 C 16.414062 -18.890625 15.941406 -18.847656 15.265625 -18.828125 C 14.597656 -18.804688 13.640625 -18.796875 12.390625 -18.796875 C 11.753906 -18.796875 11.066406 -18.800781 10.328125 -18.8125 C 9.585938 -18.820312 8.953125 -18.835938 8.421875 -18.859375 C 7.898438 -18.878906 7.640625 -18.890625 7.640625 -18.890625 C 7.597656 -18.890625 7.554688 -18.890625 7.515625 -18.890625 C 7.472656 -18.890625 7.429688 -18.890625 7.390625 -18.890625 C 7.328125 -18.890625 7.265625 -18.890625 7.203125 -18.890625 C 7.140625 -18.890625 7.109375 -18.890625 7.109375 -18.890625 C 6.816406 -18.890625 6.671875 -18.734375 6.671875 -18.421875 C 6.671875 -17.503906 6.671875 -16.796875 6.671875 -16.296875 C 6.671875 -15.804688 6.679688 -15.460938 6.703125 -15.265625 C 6.722656 -15.066406 6.757812 -14.953125 6.8125 -14.921875 C 6.863281 -14.890625 6.953125 -14.875 7.078125 -14.875 C 7.078125 -14.875 7.238281 -14.878906 7.5625 -14.890625 C 7.882812 -14.898438 8.210938 -14.90625 8.546875 -14.90625 C 9.765625 -14.90625 10.707031 -14.894531 11.375 -14.875 C 12.050781 -14.851562 12.535156 -14.757812 12.828125 -14.59375 C 13.117188 -14.4375 13.296875 -14.164062 13.359375 -13.78125 C 13.421875 -13.394531 13.453125 -12.835938 13.453125 -12.109375 C 13.453125 -11.515625 13.425781 -11.054688 13.375 -10.734375 C 13.320312 -10.410156 13.128906 -10.175781 12.796875 -10.03125 C 12.460938 -9.882812 11.867188 -9.789062 11.015625 -9.75 C 10.171875 -9.707031 8.941406 -9.675781 7.328125 -9.65625 C 7.140625 -9.65625 7 -9.648438 6.90625 -9.640625 C 6.8125 -9.628906 6.75 -9.507812 6.71875 -9.28125 C 6.6875 -9.0625 6.671875 -8.648438 6.671875 -8.046875 C 6.671875 -7.441406 6.671875 -6.550781 6.671875 -5.375 C 6.671875 -5.101562 6.691406 -4.929688 6.734375 -4.859375 C 6.773438 -4.785156 6.929688 -4.75 7.203125 -4.75 C 7.804688 -4.75 8.5 -4.753906 9.28125 -4.765625 C 10.070312 -4.773438 10.863281 -4.789062 11.65625 -4.8125 C 12.457031 -4.832031 13.195312 -4.847656 13.875 -4.859375 C 14.5625 -4.867188 15.113281 -4.878906 15.53125 -4.890625 C 15.945312 -4.898438 16.15625 -4.90625 16.15625 -4.90625 C 16.488281 -4.90625 16.8125 -4.867188 17.125 -4.796875 C 17.445312 -4.722656 17.617188 -4.421875 17.640625 -3.890625 C 17.660156 -3.492188 17.679688 -3.109375 17.703125 -2.734375 C 17.722656 -2.359375 17.734375 -1.984375 17.734375 -1.609375 C 17.734375 -1.140625 17.722656 -0.78125 17.703125 -0.53125 C 17.679688 -0.28125 17.578125 -0.09375 17.390625 0.03125 C 17.203125 0.15625 16.859375 0.234375 16.359375 0.265625 C 15.867188 0.296875 15.15625 0.304688 14.21875 0.296875 C 13.289062 0.285156 12.0625 0.28125 10.53125 0.28125 C 9.207031 0.28125 7.878906 0.273438 6.546875 0.265625 C 5.222656 0.253906 3.890625 0.25 2.546875 0.25 C 2.148438 0.25 1.785156 0.253906 1.453125 0.265625 C 1.128906 0.273438 0.96875 0.28125 0.96875 0.28125 C 0.71875 0.28125 0.550781 0.226562 0.46875 0.125 C 0.382812 0.0195312 0.34375 -0.164062 0.34375 -0.4375 C 0.34375 -0.5 0.34375 -0.78125 0.34375 -1.28125 C 0.34375 -1.789062 0.347656 -2.414062 0.359375 -3.15625 C 0.367188 -3.90625 0.375 -4.695312 0.375 -5.53125 C 0.375 -6.375 0.378906 -7.171875 0.390625 -7.921875 C 0.398438 -8.671875 0.40625 -9.304688 0.40625 -9.828125 C 0.40625 -10.359375 0.40625 -10.664062 0.40625 -10.75 L 0.40625 -11.4375 L 0.4375 -11.4375 C 0.4375 -11.96875 0.425781 -12.59375 0.40625 -13.3125 C 0.382812 -14.03125 0.367188 -14.78125 0.359375 -15.5625 C 0.347656 -16.351562 0.335938 -17.097656 0.328125 -17.796875 C 0.316406 -18.503906 0.3125 -19.109375 0.3125 -19.609375 Z M 0.3125 -19.609375 "/></g></g></g><g fill="#ffffff" fill-opacity="1"><g transform="translate(261.582113, 219.381537)"><g><path d="M 0.3125 -23.640625 C 0.3125 -23.828125 0.425781 -23.953125 0.65625 -24.015625 C 0.882812 -24.078125 1.148438 -24.109375 1.453125 -24.109375 C 1.765625 -24.109375 2.046875 -24.109375 2.296875 -24.109375 C 3.554688 -24.109375 4.460938 -24.09375 5.015625 -24.0625 C 5.566406 -24.03125 5.929688 -23.957031 6.109375 -23.84375 C 6.285156 -23.726562 6.40625 -23.535156 6.46875 -23.265625 C 6.488281 -23.242188 6.566406 -22.972656 6.703125 -22.453125 C 6.847656 -21.941406 7.03125 -21.285156 7.25 -20.484375 C 7.46875 -19.691406 7.703125 -18.847656 7.953125 -17.953125 C 8.203125 -17.066406 8.4375 -16.226562 8.65625 -15.4375 C 8.875 -14.65625 9.0625 -14.015625 9.21875 -13.515625 C 9.382812 -13.015625 9.476562 -12.753906 9.5 -12.734375 C 9.75 -13.648438 9.953125 -14.40625 10.109375 -15 C 10.265625 -15.601562 10.398438 -16.132812 10.515625 -16.59375 C 10.628906 -17.0625 10.753906 -17.550781 10.890625 -18.0625 C 11.023438 -18.570312 11.195312 -19.191406 11.40625 -19.921875 C 11.613281 -20.660156 11.878906 -21.617188 12.203125 -22.796875 C 12.304688 -23.128906 12.394531 -23.390625 12.46875 -23.578125 C 12.539062 -23.765625 12.691406 -23.894531 12.921875 -23.96875 C 13.148438 -24.039062 13.523438 -24.082031 14.046875 -24.09375 C 14.578125 -24.101562 15.320312 -24.109375 16.28125 -24.109375 C 16.957031 -24.109375 17.390625 -24.101562 17.578125 -24.09375 C 17.765625 -24.082031 17.910156 -24.054688 18.015625 -24.015625 C 18.328125 -23.972656 18.484375 -23.859375 18.484375 -23.671875 C 18.484375 -23.359375 18.257812 -22.269531 17.8125 -20.40625 C 17.363281 -18.539062 16.738281 -16.023438 15.9375 -12.859375 C 15.144531 -9.691406 14.210938 -6.003906 13.140625 -1.796875 C 12.992188 -1.242188 12.90625 -0.832031 12.875 -0.5625 C 12.84375 -0.289062 12.757812 -0.113281 12.625 -0.03125 C 12.488281 0.0507812 12.210938 0.09375 11.796875 0.09375 C 11.390625 0.09375 10.726562 0.09375 9.8125 0.09375 C 8.71875 0.09375 7.90625 0.0976562 7.375 0.109375 C 6.84375 0.117188 6.484375 0.09375 6.296875 0.03125 C 6.117188 -0.03125 6.007812 -0.175781 5.96875 -0.40625 C 5.90625 -0.757812 5.753906 -1.429688 5.515625 -2.421875 C 5.273438 -3.421875 4.988281 -4.609375 4.65625 -5.984375 C 4.320312 -7.359375 3.953125 -8.820312 3.546875 -10.375 C 3.148438 -11.925781 2.765625 -13.460938 2.390625 -14.984375 C 2.015625 -16.503906 1.664062 -17.894531 1.34375 -19.15625 C 1.03125 -20.425781 0.78125 -21.460938 0.59375 -22.265625 C 0.40625 -23.078125 0.3125 -23.535156 0.3125 -23.640625 Z M 0.3125 -23.640625 "/></g></g></g><g fill="#ff3131" fill-opacity="1"><g transform="translate(68.487422, 183.863179)"><g><path d="M 5.5 -8.1875 C 6.757812 -7.625 7.796875 -7.160156 8.609375 -6.796875 C 9.421875 -6.441406 10.066406 -6.148438 10.546875 -5.921875 C 11.023438 -5.691406 11.378906 -5.492188 11.609375 -5.328125 C 11.847656 -5.160156 12 -4.988281 12.0625 -4.8125 C 12.132812 -4.644531 12.164062 -4.441406 12.15625 -4.203125 C 12.144531 -3.960938 12.140625 -3.65625 12.140625 -3.28125 C 12.140625 -2.9375 12.117188 -2.59375 12.078125 -2.25 C 12.023438 -1.957031 11.9375 -1.8125 11.8125 -1.8125 C 11.75 -1.8125 11.59375 -1.851562 11.34375 -1.9375 C 11.09375 -2.03125 10.804688 -2.132812 10.484375 -2.25 C 10.171875 -2.363281 9.890625 -2.46875 9.640625 -2.5625 C 9.398438 -2.664062 9.253906 -2.726562 9.203125 -2.75 C 7.390625 -3.445312 5.910156 -4.015625 4.765625 -4.453125 C 3.628906 -4.898438 2.742188 -5.242188 2.109375 -5.484375 C 1.484375 -5.734375 1.035156 -5.925781 0.765625 -6.0625 C 0.492188 -6.207031 0.332031 -6.335938 0.28125 -6.453125 C 0.238281 -6.566406 0.21875 -6.710938 0.21875 -6.890625 C 0.21875 -6.890625 0.21875 -7.039062 0.21875 -7.34375 C 0.226562 -7.65625 0.234375 -8.078125 0.234375 -8.609375 C 0.234375 -8.828125 0.226562 -9.050781 0.21875 -9.28125 C 0.21875 -9.507812 0.21875 -9.625 0.21875 -9.625 C 0.21875 -9.976562 0.40625 -10.234375 0.78125 -10.390625 C 2.757812 -11.160156 4.40625 -11.800781 5.71875 -12.3125 C 7.03125 -12.820312 8.078125 -13.234375 8.859375 -13.546875 C 9.648438 -13.859375 10.242188 -14.085938 10.640625 -14.234375 C 11.035156 -14.390625 11.304688 -14.492188 11.453125 -14.546875 C 11.609375 -14.597656 11.722656 -14.625 11.796875 -14.625 C 11.910156 -14.625 11.992188 -14.546875 12.046875 -14.390625 C 12.109375 -14.242188 12.140625 -13.832031 12.140625 -13.15625 C 12.140625 -12.894531 12.128906 -12.632812 12.109375 -12.375 C 12.097656 -12.113281 12.085938 -11.851562 12.078125 -11.59375 C 12.054688 -11.363281 11.929688 -11.207031 11.703125 -11.125 C 10.535156 -10.539062 9.566406 -10.070312 8.796875 -9.71875 C 8.023438 -9.375 7.410156 -9.101562 6.953125 -8.90625 C 6.492188 -8.707031 6.15625 -8.554688 5.9375 -8.453125 C 5.71875 -8.347656 5.570312 -8.257812 5.5 -8.1875 Z M 5.5 -8.1875 "/></g></g></g><g fill="#ff3131" fill-opacity="1"><g transform="translate(285.092035, 218.340544)"><g><path d="M 7.8125 -15.421875 L 2.078125 0 L 0.21875 0 L 5.953125 -15.421875 Z M 7.8125 -15.421875 "/></g></g></g><g fill="#ff3131" fill-opacity="1"><g transform="translate(293.126112, 218.340544)"><g><path d="M 6.796875 -8.203125 C 6.773438 -8.265625 6.597656 -8.375 6.265625 -8.53125 C 5.929688 -8.6875 5.519531 -8.875 5.03125 -9.09375 C 4.539062 -9.3125 4.023438 -9.535156 3.484375 -9.765625 C 2.941406 -10.003906 2.429688 -10.238281 1.953125 -10.46875 C 1.472656 -10.695312 1.082031 -10.898438 0.78125 -11.078125 C 0.476562 -11.265625 0.316406 -11.410156 0.296875 -11.515625 C 0.273438 -11.953125 0.25 -12.398438 0.21875 -12.859375 C 0.195312 -13.316406 0.21875 -13.765625 0.28125 -14.203125 C 0.320312 -14.492188 0.410156 -14.640625 0.546875 -14.640625 C 0.597656 -14.640625 0.742188 -14.597656 0.984375 -14.515625 C 1.222656 -14.441406 1.484375 -14.347656 1.765625 -14.234375 C 2.054688 -14.117188 2.316406 -14.015625 2.546875 -13.921875 C 2.773438 -13.835938 2.910156 -13.78125 2.953125 -13.75 C 4.515625 -13.144531 5.828125 -12.640625 6.890625 -12.234375 C 7.953125 -11.828125 8.816406 -11.492188 9.484375 -11.234375 C 10.160156 -10.972656 10.679688 -10.757812 11.046875 -10.59375 C 11.410156 -10.4375 11.664062 -10.304688 11.8125 -10.203125 C 11.96875 -10.109375 12.0625 -10.015625 12.09375 -9.921875 C 12.125 -9.828125 12.140625 -9.707031 12.140625 -9.5625 C 12.140625 -8.800781 12.140625 -8.195312 12.140625 -7.75 C 12.148438 -7.300781 12.144531 -6.96875 12.125 -6.75 C 12.101562 -6.539062 12.050781 -6.390625 11.96875 -6.296875 C 11.894531 -6.210938 11.769531 -6.132812 11.59375 -6.0625 C 9.550781 -5.269531 7.863281 -4.609375 6.53125 -4.078125 C 5.195312 -3.554688 4.140625 -3.140625 3.359375 -2.828125 C 2.585938 -2.523438 2.007812 -2.300781 1.625 -2.15625 C 1.25 -2.007812 0.988281 -1.914062 0.84375 -1.875 C 0.707031 -1.832031 0.609375 -1.8125 0.546875 -1.8125 C 0.410156 -1.8125 0.320312 -1.960938 0.28125 -2.265625 C 0.269531 -2.421875 0.253906 -2.597656 0.234375 -2.796875 C 0.222656 -2.992188 0.21875 -3.160156 0.21875 -3.296875 C 0.21875 -3.878906 0.226562 -4.300781 0.25 -4.5625 C 0.269531 -4.832031 0.316406 -5.015625 0.390625 -5.109375 C 0.460938 -5.203125 0.554688 -5.273438 0.671875 -5.328125 C 0.671875 -5.328125 0.816406 -5.398438 1.109375 -5.546875 C 1.410156 -5.691406 1.789062 -5.867188 2.25 -6.078125 C 2.71875 -6.296875 3.210938 -6.523438 3.734375 -6.765625 C 4.253906 -7.015625 4.75 -7.25 5.21875 -7.46875 C 5.6875 -7.6875 6.066406 -7.863281 6.359375 -8 C 6.648438 -8.132812 6.796875 -8.203125 6.796875 -8.203125 Z M 6.796875 -8.203125 "/></g></g></g></svg>