<svg xmlns="http://www.w3.org/2000/svg" xmlns:xlink="http://www.w3.org/1999/xlink" width="500" zoomAndPan="magnify" viewBox="0 0 375 374.999991" height="500" preserveAspectRatio="xMidYMid meet" version="1.0"><defs><g/></defs><rect x="-37.5" width="450" fill="#ffffff" y="-37.499999" height="449.999989" fill-opacity="1"/><rect x="-37.5" width="450" fill="#545454" y="-37.499999" height="449.999989" fill-opacity="1"/><g fill="#ffffff" fill-opacity="1"><g transform="translate(75.322593, 188.09415)"><g><path d="M 25.890625 -19.265625 C 28.203125 -15.472656 30.070312 -12.394531 31.5 -10.03125 C 32.9375 -7.675781 34.03125 -5.859375 34.78125 -4.578125 C 35.539062 -3.296875 36.085938 -2.367188 36.421875 -1.796875 C 36.765625 -1.234375 36.957031 -0.875 37 -0.71875 C 37.039062 -0.570312 37.0625 -0.4375 37.0625 -0.3125 C 37.0625 0.144531 36.640625 0.375 35.796875 0.375 C 33.359375 0.375 31.410156 0.382812 29.953125 0.40625 C 28.503906 0.425781 27.347656 0.351562 26.484375 0.1875 C 25.617188 0.0195312 24.867188 -0.351562 24.234375 -0.9375 C 23.609375 -1.53125 22.894531 -2.414062 22.09375 -3.59375 C 21.300781 -4.769531 20.257812 -6.367188 18.96875 -8.390625 C 17.6875 -10.410156 15.929688 -12.9375 13.703125 -15.96875 C 13.492188 -15.757812 13.390625 -15.507812 13.390625 -15.21875 C 13.390625 -15.21875 13.398438 -15.144531 13.421875 -15 C 13.441406 -14.851562 13.453125 -14.484375 13.453125 -13.890625 C 13.453125 -12.671875 13.441406 -11.425781 13.421875 -10.15625 C 13.398438 -8.894531 13.390625 -7.65625 13.390625 -6.4375 C 13.390625 -4.96875 13.410156 -3.757812 13.453125 -2.8125 C 13.492188 -1.863281 13.515625 -1.390625 13.515625 -1.390625 C 13.515625 -0.585938 13.289062 -0.125 12.84375 0 C 12.40625 0.125 11.804688 0.1875 11.046875 0.1875 C 10.328125 0.1875 9.609375 0.1875 8.890625 0.1875 C 8.179688 0.1875 7.46875 0.1875 6.75 0.1875 C 5.320312 0.1875 4.144531 0.226562 3.21875 0.3125 C 2.289062 0.394531 1.828125 0.4375 1.828125 0.4375 C 1.066406 0.4375 0.6875 -0.0234375 0.6875 -0.953125 C 0.6875 -0.953125 0.695312 -1.148438 0.71875 -1.546875 C 0.738281 -1.941406 0.75 -2.351562 0.75 -2.78125 C 0.75 -3.625 0.726562 -4.441406 0.6875 -5.234375 C 0.644531 -6.035156 0.625 -6.835938 0.625 -7.640625 C 0.625 -14.796875 0.625 -20.757812 0.625 -25.53125 C 0.625 -30.3125 0.632812 -34.175781 0.65625 -37.125 C 0.675781 -40.070312 0.726562 -42.300781 0.8125 -43.8125 C 0.90625 -45.332031 1.023438 -46.375 1.171875 -46.9375 C 1.316406 -47.507812 1.515625 -47.816406 1.765625 -47.859375 C 2.015625 -47.898438 2.332031 -47.921875 2.71875 -47.921875 C 6.71875 -48.003906 9.832031 -48.078125 12.0625 -48.140625 C 14.289062 -48.203125 15.898438 -48.242188 16.890625 -48.265625 C 17.878906 -48.285156 18.488281 -48.304688 18.71875 -48.328125 C 18.945312 -48.347656 19.0625 -48.359375 19.0625 -48.359375 C 23.1875 -48.359375 26.597656 -47.65625 29.296875 -46.25 C 31.992188 -44.84375 34.003906 -43.039062 35.328125 -40.84375 C 36.648438 -38.65625 37.3125 -36.382812 37.3125 -34.03125 C 37.3125 -30.15625 36.300781 -27.050781 34.28125 -24.71875 C 32.257812 -22.382812 29.460938 -20.566406 25.890625 -19.265625 Z M 15.90625 -29.859375 C 15.945312 -29.859375 16.296875 -29.859375 16.953125 -29.859375 C 17.609375 -29.859375 18.332031 -29.867188 19.125 -29.890625 C 19.925781 -29.910156 20.617188 -29.921875 21.203125 -29.921875 C 21.796875 -29.921875 22.070312 -29.921875 22.03125 -29.921875 C 22.914062 -29.921875 23.585938 -30.238281 24.046875 -30.875 C 24.515625 -31.507812 24.75 -32.222656 24.75 -33.015625 C 24.75 -34.367188 24.367188 -35.378906 23.609375 -36.046875 C 22.859375 -36.722656 22.207031 -37.0625 21.65625 -37.0625 C 21.445312 -37.0625 21.234375 -37.0625 21.015625 -37.0625 C 20.804688 -37.0625 20.597656 -37.0625 20.390625 -37.0625 C 18.117188 -37.0625 16.476562 -37.0625 15.46875 -37.0625 C 14.457031 -37.0625 13.828125 -37 13.578125 -36.875 C 13.328125 -36.75 13.203125 -36.492188 13.203125 -36.109375 C 13.203125 -36.109375 13.210938 -35.582031 13.234375 -34.53125 C 13.253906 -33.476562 13.265625 -32.28125 13.265625 -30.9375 C 13.265625 -30.894531 13.265625 -30.863281 13.265625 -30.84375 C 13.265625 -30.820312 13.265625 -30.8125 13.265625 -30.8125 C 13.265625 -30.175781 13.578125 -29.859375 14.203125 -29.859375 C 14.203125 -29.859375 14.359375 -29.859375 14.671875 -29.859375 C 14.992188 -29.859375 15.40625 -29.859375 15.90625 -29.859375 Z M 15.90625 -29.859375 "/></g></g></g><g fill="#ffffff" fill-opacity="1"><g transform="translate(115.797805, 188.09415)"><g><path d="M 0.6875 -26.578125 C 0.6875 -27.296875 0.675781 -27.84375 0.65625 -28.21875 C 0.632812 -28.601562 0.863281 -28.878906 1.34375 -29.046875 C 1.832031 -29.210938 2.800781 -29.316406 4.25 -29.359375 C 5.707031 -29.398438 7.867188 -29.410156 10.734375 -29.390625 C 13.597656 -29.367188 17.425781 -29.359375 22.21875 -29.359375 C 22.726562 -29.359375 22.984375 -29.65625 22.984375 -30.25 L 22.984375 -36.875 C 22.984375 -37.46875 22.6875 -37.765625 22.09375 -37.765625 C 19.445312 -37.765625 17.445312 -37.765625 16.09375 -37.765625 C 14.75 -37.765625 13.832031 -37.707031 13.34375 -37.59375 C 12.863281 -37.488281 12.613281 -37.320312 12.59375 -37.09375 C 12.570312 -36.863281 12.5625 -36.492188 12.5625 -35.984375 C 12.5625 -35.609375 12.582031 -35.15625 12.625 -34.625 C 12.664062 -34.101562 12.625 -33.640625 12.5 -33.234375 C 12.375 -32.835938 12.015625 -32.640625 11.421875 -32.640625 C 8.648438 -32.640625 6.523438 -32.640625 5.046875 -32.640625 C 3.578125 -32.640625 2.546875 -32.679688 1.953125 -32.765625 C 1.367188 -32.847656 1.019531 -32.992188 0.90625 -33.203125 C 0.800781 -33.421875 0.75 -33.738281 0.75 -34.15625 C 0.75 -34.320312 0.757812 -34.796875 0.78125 -35.578125 C 0.8125 -36.359375 0.835938 -37.285156 0.859375 -38.359375 C 0.878906 -39.429688 0.890625 -40.484375 0.890625 -41.515625 C 0.890625 -42.546875 0.898438 -43.414062 0.921875 -44.125 C 0.941406 -44.84375 0.953125 -45.222656 0.953125 -45.265625 C 0.953125 -45.484375 0.941406 -45.851562 0.921875 -46.375 C 0.898438 -46.90625 0.890625 -47.191406 0.890625 -47.234375 C 0.890625 -47.816406 1.179688 -48.109375 1.765625 -48.109375 C 1.765625 -48.109375 1.859375 -48.109375 2.046875 -48.109375 C 2.242188 -48.109375 2.425781 -48.109375 2.59375 -48.109375 C 2.925781 -48.109375 3.226562 -48.109375 3.5 -48.109375 C 3.78125 -48.109375 4.066406 -48.109375 4.359375 -48.109375 C 9.535156 -48.109375 13.890625 -48.109375 17.421875 -48.109375 C 20.960938 -48.109375 23.835938 -48.097656 26.046875 -48.078125 C 28.253906 -48.054688 29.945312 -48.046875 31.125 -48.046875 C 32.300781 -48.046875 33.128906 -48.035156 33.609375 -48.015625 C 34.097656 -47.992188 34.382812 -47.984375 34.46875 -47.984375 C 34.550781 -47.984375 34.59375 -47.984375 34.59375 -47.984375 L 34.671875 -47.984375 C 35.003906 -47.984375 35.253906 -47.867188 35.421875 -47.640625 C 35.585938 -47.410156 35.691406 -46.84375 35.734375 -45.9375 C 35.773438 -45.03125 35.796875 -43.609375 35.796875 -41.671875 C 35.796875 -39.734375 35.796875 -37.0625 35.796875 -33.65625 L 35.796875 -23.484375 L 35.921875 -23.484375 L 35.921875 -1.890625 C 35.921875 -0.921875 35.785156 -0.289062 35.515625 0 C 35.242188 0.289062 34.625 0.4375 33.65625 0.4375 C 33.65625 0.4375 32.914062 0.425781 31.4375 0.40625 C 29.96875 0.382812 28.035156 0.375 25.640625 0.375 C 24.078125 0.375 22.523438 0.382812 20.984375 0.40625 C 19.453125 0.425781 17.890625 0.4375 16.296875 0.4375 C 12.035156 0.4375 7.78125 0.375 3.53125 0.25 C 2.988281 0.207031 2.535156 0.21875 2.171875 0.28125 C 1.816406 0.34375 1.535156 0.25 1.328125 0 C 1.117188 -0.25 0.96875 -0.847656 0.875 -1.796875 C 0.789062 -2.742188 0.738281 -4.1875 0.71875 -6.125 C 0.695312 -8.0625 0.6875 -10.691406 0.6875 -14.015625 C 0.6875 -17.335938 0.6875 -21.523438 0.6875 -26.578125 Z M 12.75 -12.5 C 12.75 -11.363281 12.769531 -10.59375 12.8125 -10.1875 C 12.851562 -9.789062 13.171875 -9.59375 13.765625 -9.59375 C 15.148438 -9.632812 16.523438 -9.65625 17.890625 -9.65625 C 19.265625 -9.65625 20.644531 -9.65625 22.03125 -9.65625 C 22.664062 -9.65625 22.984375 -9.972656 22.984375 -10.609375 C 22.984375 -10.609375 22.972656 -11.003906 22.953125 -11.796875 C 22.929688 -12.597656 22.921875 -13.484375 22.921875 -14.453125 C 22.921875 -15.585938 22.929688 -16.535156 22.953125 -17.296875 C 22.972656 -18.054688 22.984375 -18.4375 22.984375 -18.4375 C 22.984375 -19.03125 22.769531 -19.335938 22.34375 -19.359375 C 21.925781 -19.378906 21.234375 -19.390625 20.265625 -19.390625 C 19.847656 -19.390625 19.445312 -19.390625 19.0625 -19.390625 C 18.6875 -19.390625 18.289062 -19.390625 17.875 -19.390625 C 16.4375 -19.390625 15.421875 -19.390625 14.828125 -19.390625 C 14.242188 -19.390625 13.910156 -19.390625 13.828125 -19.390625 C 13.742188 -19.390625 13.703125 -19.390625 13.703125 -19.390625 C 13.066406 -19.390625 12.75 -19.09375 12.75 -18.5 C 12.75 -18.5 12.75 -17.898438 12.75 -16.703125 C 12.75 -15.503906 12.75 -14.101562 12.75 -12.5 Z M 12.75 -12.5 "/></g></g></g><g fill="#ffffff" fill-opacity="1"><g transform="translate(154.883854, 188.09415)"><g><path d="M 0.890625 -22.984375 C 0.890625 -24.035156 0.863281 -25.304688 0.8125 -26.796875 C 0.769531 -28.296875 0.738281 -29.851562 0.71875 -31.46875 C 0.695312 -33.09375 0.675781 -34.617188 0.65625 -36.046875 C 0.632812 -37.484375 0.625 -38.6875 0.625 -39.65625 C 0.625 -40.875 0.65625 -42.09375 0.71875 -43.3125 C 0.789062 -44.53125 0.847656 -45.726562 0.890625 -46.90625 C 0.890625 -47.664062 1.222656 -48.046875 1.890625 -48.046875 C 1.890625 -48.046875 2.117188 -48.023438 2.578125 -47.984375 C 3.046875 -47.941406 3.578125 -47.921875 4.171875 -47.921875 C 9.765625 -47.921875 14.421875 -47.941406 18.140625 -47.984375 C 21.867188 -48.023438 24.828125 -48.085938 27.015625 -48.171875 C 29.210938 -48.253906 30.769531 -48.316406 31.6875 -48.359375 C 32.613281 -48.398438 33.078125 -48.421875 33.078125 -48.421875 C 34.179688 -48.421875 34.796875 -48.125 34.921875 -47.53125 C 35.046875 -46.945312 35.109375 -45.878906 35.109375 -44.328125 C 35.109375 -43.148438 35.109375 -42.265625 35.109375 -41.671875 C 35.109375 -41.078125 35.097656 -40.65625 35.078125 -40.40625 C 35.054688 -40.15625 35.003906 -39.882812 34.921875 -39.59375 C 34.835938 -39.207031 34.726562 -38.890625 34.59375 -38.640625 C 34.46875 -38.390625 34.140625 -38.203125 33.609375 -38.078125 C 33.085938 -37.953125 32.21875 -37.867188 31 -37.828125 C 29.78125 -37.785156 28.015625 -37.765625 25.703125 -37.765625 C 24.265625 -37.765625 22.796875 -37.773438 21.296875 -37.796875 C 19.804688 -37.816406 18.453125 -37.847656 17.234375 -37.890625 C 16.015625 -37.929688 15.066406 -37.953125 14.390625 -37.953125 C 14.015625 -37.953125 13.765625 -37.90625 13.640625 -37.8125 C 13.515625 -37.726562 13.441406 -37.46875 13.421875 -37.03125 C 13.398438 -36.59375 13.390625 -35.828125 13.390625 -34.734375 C 13.390625 -33.085938 13.398438 -31.925781 13.421875 -31.25 C 13.441406 -30.582031 13.515625 -30.179688 13.640625 -30.046875 C 13.765625 -29.921875 13.972656 -29.859375 14.265625 -29.859375 C 14.265625 -29.859375 14.578125 -29.867188 15.203125 -29.890625 C 15.835938 -29.910156 16.492188 -29.921875 17.171875 -29.921875 C 18.140625 -29.921875 19.109375 -29.910156 20.078125 -29.890625 C 21.046875 -29.867188 21.992188 -29.835938 22.921875 -29.796875 C 23.972656 -29.796875 24.789062 -29.710938 25.375 -29.546875 C 25.96875 -29.378906 26.390625 -28.914062 26.640625 -28.15625 C 26.898438 -27.40625 27.03125 -26.101562 27.03125 -24.25 C 27.03125 -22.894531 26.953125 -21.910156 26.796875 -21.296875 C 26.648438 -20.691406 26.410156 -20.316406 26.078125 -20.171875 C 25.742188 -20.023438 25.300781 -19.929688 24.75 -19.890625 C 21.71875 -19.640625 19.410156 -19.492188 17.828125 -19.453125 C 16.253906 -19.410156 15.160156 -19.390625 14.546875 -19.390625 C 13.941406 -19.390625 13.609375 -19.289062 13.546875 -19.09375 C 13.484375 -18.90625 13.453125 -18.539062 13.453125 -18 C 13.367188 -13.789062 13.335938 -10.429688 13.359375 -7.921875 C 13.378906 -5.421875 13.367188 -3.546875 13.328125 -2.296875 C 13.285156 -1.054688 13.175781 -0.25 13 0.125 C 12.832031 0.5 12.550781 0.664062 12.15625 0.625 C 11.757812 0.582031 11.179688 0.5625 10.421875 0.5625 C 9.578125 0.5625 8.710938 0.550781 7.828125 0.53125 C 6.941406 0.507812 6.054688 0.5 5.171875 0.5 C 4.160156 0.5 3.335938 0.507812 2.703125 0.53125 C 2.078125 0.550781 1.765625 0.5625 1.765625 0.5625 C 1.046875 0.5625 0.6875 0.0976562 0.6875 -0.828125 C 0.6875 -0.828125 0.695312 -1.832031 0.71875 -3.84375 C 0.738281 -5.863281 0.75 -9.191406 0.75 -13.828125 C 0.75 -15.335938 0.75 -16.847656 0.75 -18.359375 C 0.75 -19.878906 0.75 -21.421875 0.75 -22.984375 C 0.75 -22.984375 0.757812 -22.984375 0.78125 -22.984375 C 0.8125 -22.984375 0.847656 -22.984375 0.890625 -22.984375 Z M 0.890625 -22.984375 "/></g></g></g><g fill="#ffffff" fill-opacity="1"><g transform="translate(193.149046, 188.09415)"><g><path d="M 0.6875 -26.578125 C 0.6875 -27.296875 0.675781 -27.84375 0.65625 -28.21875 C 0.632812 -28.601562 0.863281 -28.878906 1.34375 -29.046875 C 1.832031 -29.210938 2.800781 -29.316406 4.25 -29.359375 C 5.707031 -29.398438 7.867188 -29.410156 10.734375 -29.390625 C 13.597656 -29.367188 17.425781 -29.359375 22.21875 -29.359375 C 22.726562 -29.359375 22.984375 -29.65625 22.984375 -30.25 L 22.984375 -36.875 C 22.984375 -37.46875 22.6875 -37.765625 22.09375 -37.765625 C 19.445312 -37.765625 17.445312 -37.765625 16.09375 -37.765625 C 14.75 -37.765625 13.832031 -37.707031 13.34375 -37.59375 C 12.863281 -37.488281 12.613281 -37.320312 12.59375 -37.09375 C 12.570312 -36.863281 12.5625 -36.492188 12.5625 -35.984375 C 12.5625 -35.609375 12.582031 -35.15625 12.625 -34.625 C 12.664062 -34.101562 12.625 -33.640625 12.5 -33.234375 C 12.375 -32.835938 12.015625 -32.640625 11.421875 -32.640625 C 8.648438 -32.640625 6.523438 -32.640625 5.046875 -32.640625 C 3.578125 -32.640625 2.546875 -32.679688 1.953125 -32.765625 C 1.367188 -32.847656 1.019531 -32.992188 0.90625 -33.203125 C 0.800781 -33.421875 0.75 -33.738281 0.75 -34.15625 C 0.75 -34.320312 0.757812 -34.796875 0.78125 -35.578125 C 0.8125 -36.359375 0.835938 -37.285156 0.859375 -38.359375 C 0.878906 -39.429688 0.890625 -40.484375 0.890625 -41.515625 C 0.890625 -42.546875 0.898438 -43.414062 0.921875 -44.125 C 0.941406 -44.84375 0.953125 -45.222656 0.953125 -45.265625 C 0.953125 -45.484375 0.941406 -45.851562 0.921875 -46.375 C 0.898438 -46.90625 0.890625 -47.191406 0.890625 -47.234375 C 0.890625 -47.816406 1.179688 -48.109375 1.765625 -48.109375 C 1.765625 -48.109375 1.859375 -48.109375 2.046875 -48.109375 C 2.242188 -48.109375 2.425781 -48.109375 2.59375 -48.109375 C 2.925781 -48.109375 3.226562 -48.109375 3.5 -48.109375 C 3.78125 -48.109375 4.066406 -48.109375 4.359375 -48.109375 C 9.535156 -48.109375 13.890625 -48.109375 17.421875 -48.109375 C 20.960938 -48.109375 23.835938 -48.097656 26.046875 -48.078125 C 28.253906 -48.054688 29.945312 -48.046875 31.125 -48.046875 C 32.300781 -48.046875 33.128906 -48.035156 33.609375 -48.015625 C 34.097656 -47.992188 34.382812 -47.984375 34.46875 -47.984375 C 34.550781 -47.984375 34.59375 -47.984375 34.59375 -47.984375 L 34.671875 -47.984375 C 35.003906 -47.984375 35.253906 -47.867188 35.421875 -47.640625 C 35.585938 -47.410156 35.691406 -46.84375 35.734375 -45.9375 C 35.773438 -45.03125 35.796875 -43.609375 35.796875 -41.671875 C 35.796875 -39.734375 35.796875 -37.0625 35.796875 -33.65625 L 35.796875 -23.484375 L 35.921875 -23.484375 L 35.921875 -1.890625 C 35.921875 -0.921875 35.785156 -0.289062 35.515625 0 C 35.242188 0.289062 34.625 0.4375 33.65625 0.4375 C 33.65625 0.4375 32.914062 0.425781 31.4375 0.40625 C 29.96875 0.382812 28.035156 0.375 25.640625 0.375 C 24.078125 0.375 22.523438 0.382812 20.984375 0.40625 C 19.453125 0.425781 17.890625 0.4375 16.296875 0.4375 C 12.035156 0.4375 7.78125 0.375 3.53125 0.25 C 2.988281 0.207031 2.535156 0.21875 2.171875 0.28125 C 1.816406 0.34375 1.535156 0.25 1.328125 0 C 1.117188 -0.25 0.96875 -0.847656 0.875 -1.796875 C 0.789062 -2.742188 0.738281 -4.1875 0.71875 -6.125 C 0.695312 -8.0625 0.6875 -10.691406 0.6875 -14.015625 C 0.6875 -17.335938 0.6875 -21.523438 0.6875 -26.578125 Z M 12.75 -12.5 C 12.75 -11.363281 12.769531 -10.59375 12.8125 -10.1875 C 12.851562 -9.789062 13.171875 -9.59375 13.765625 -9.59375 C 15.148438 -9.632812 16.523438 -9.65625 17.890625 -9.65625 C 19.265625 -9.65625 20.644531 -9.65625 22.03125 -9.65625 C 22.664062 -9.65625 22.984375 -9.972656 22.984375 -10.609375 C 22.984375 -10.609375 22.972656 -11.003906 22.953125 -11.796875 C 22.929688 -12.597656 22.921875 -13.484375 22.921875 -14.453125 C 22.921875 -15.585938 22.929688 -16.535156 22.953125 -17.296875 C 22.972656 -18.054688 22.984375 -18.4375 22.984375 -18.4375 C 22.984375 -19.03125 22.769531 -19.335938 22.34375 -19.359375 C 21.925781 -19.378906 21.234375 -19.390625 20.265625 -19.390625 C 19.847656 -19.390625 19.445312 -19.390625 19.0625 -19.390625 C 18.6875 -19.390625 18.289062 -19.390625 17.875 -19.390625 C 16.4375 -19.390625 15.421875 -19.390625 14.828125 -19.390625 C 14.242188 -19.390625 13.910156 -19.390625 13.828125 -19.390625 C 13.742188 -19.390625 13.703125 -19.390625 13.703125 -19.390625 C 13.066406 -19.390625 12.75 -19.09375 12.75 -18.5 C 12.75 -18.5 12.75 -17.898438 12.75 -16.703125 C 12.75 -15.503906 12.75 -14.101562 12.75 -12.5 Z M 12.75 -12.5 "/></g></g></g><g fill="#ffffff" fill-opacity="1"><g transform="translate(232.235096, 188.09415)"><g><path d="M 0.625 -39.40625 C 0.625 -40.625 0.65625 -41.851562 0.71875 -43.09375 C 0.789062 -44.332031 0.847656 -45.582031 0.890625 -46.84375 C 0.890625 -47.644531 1.222656 -48.046875 1.890625 -48.046875 C 1.890625 -48.046875 2.128906 -48.023438 2.609375 -47.984375 C 3.097656 -47.941406 3.660156 -47.921875 4.296875 -47.921875 C 11.453125 -47.921875 17.125 -47.960938 21.3125 -48.046875 C 25.5 -48.128906 28.492188 -48.210938 30.296875 -48.296875 C 32.109375 -48.378906 33.015625 -48.421875 33.015625 -48.421875 C 34.117188 -48.421875 34.742188 -48.132812 34.890625 -47.5625 C 35.035156 -47 35.109375 -45.941406 35.109375 -44.390625 C 35.109375 -43.128906 35.109375 -42.203125 35.109375 -41.609375 C 35.109375 -41.015625 35.097656 -40.59375 35.078125 -40.34375 C 35.054688 -40.09375 35.003906 -39.820312 34.921875 -39.53125 C 34.796875 -39.144531 34.664062 -38.835938 34.53125 -38.609375 C 34.40625 -38.378906 34.066406 -38.203125 33.515625 -38.078125 C 32.972656 -37.953125 32.03125 -37.867188 30.6875 -37.828125 C 29.34375 -37.785156 27.40625 -37.765625 24.875 -37.765625 C 23.613281 -37.765625 22.234375 -37.773438 20.734375 -37.796875 C 19.242188 -37.816406 17.972656 -37.847656 16.921875 -37.890625 C 15.867188 -37.929688 15.34375 -37.953125 15.34375 -37.953125 C 15.257812 -37.953125 15.175781 -37.953125 15.09375 -37.953125 C 15.007812 -37.953125 14.925781 -37.953125 14.84375 -37.953125 C 14.71875 -37.953125 14.585938 -37.953125 14.453125 -37.953125 C 14.328125 -37.953125 14.265625 -37.953125 14.265625 -37.953125 C 13.679688 -37.953125 13.390625 -37.632812 13.390625 -37 C 13.390625 -35.144531 13.390625 -33.722656 13.390625 -32.734375 C 13.390625 -31.742188 13.410156 -31.050781 13.453125 -30.65625 C 13.492188 -30.257812 13.566406 -30.023438 13.671875 -29.953125 C 13.773438 -29.890625 13.953125 -29.859375 14.203125 -29.859375 C 14.203125 -29.859375 14.523438 -29.867188 15.171875 -29.890625 C 15.828125 -29.910156 16.492188 -29.921875 17.171875 -29.921875 C 19.617188 -29.921875 21.515625 -29.898438 22.859375 -29.859375 C 24.203125 -29.816406 25.164062 -29.640625 25.75 -29.328125 C 26.34375 -29.015625 26.703125 -28.46875 26.828125 -27.6875 C 26.960938 -26.90625 27.03125 -25.78125 27.03125 -24.3125 C 27.03125 -23.132812 26.972656 -22.21875 26.859375 -21.5625 C 26.753906 -20.90625 26.363281 -20.429688 25.6875 -20.140625 C 25.019531 -19.847656 23.832031 -19.660156 22.125 -19.578125 C 20.425781 -19.492188 17.957031 -19.429688 14.71875 -19.390625 C 14.332031 -19.390625 14.046875 -19.378906 13.859375 -19.359375 C 13.671875 -19.335938 13.546875 -19.101562 13.484375 -18.65625 C 13.421875 -18.21875 13.390625 -17.382812 13.390625 -16.15625 C 13.390625 -14.9375 13.390625 -13.148438 13.390625 -10.796875 C 13.390625 -10.242188 13.429688 -9.894531 13.515625 -9.75 C 13.597656 -9.601562 13.910156 -9.53125 14.453125 -9.53125 C 15.679688 -9.53125 17.082031 -9.539062 18.65625 -9.5625 C 20.238281 -9.582031 21.828125 -9.613281 23.421875 -9.65625 C 25.023438 -9.695312 26.507812 -9.726562 27.875 -9.75 C 29.238281 -9.769531 30.34375 -9.789062 31.1875 -9.8125 C 32.03125 -9.832031 32.453125 -9.84375 32.453125 -9.84375 C 33.128906 -9.84375 33.78125 -9.769531 34.40625 -9.625 C 35.039062 -9.476562 35.378906 -8.878906 35.421875 -7.828125 C 35.460938 -7.023438 35.503906 -6.242188 35.546875 -5.484375 C 35.585938 -4.734375 35.609375 -3.976562 35.609375 -3.21875 C 35.609375 -2.289062 35.585938 -1.570312 35.546875 -1.0625 C 35.503906 -0.5625 35.289062 -0.1875 34.90625 0.0625 C 34.53125 0.3125 33.847656 0.46875 32.859375 0.53125 C 31.867188 0.59375 30.4375 0.613281 28.5625 0.59375 C 26.695312 0.570312 24.226562 0.5625 21.15625 0.5625 C 18.5 0.5625 15.832031 0.550781 13.15625 0.53125 C 10.488281 0.507812 7.804688 0.5 5.109375 0.5 C 4.316406 0.5 3.59375 0.507812 2.9375 0.53125 C 2.28125 0.550781 1.953125 0.5625 1.953125 0.5625 C 1.453125 0.5625 1.113281 0.457031 0.9375 0.25 C 0.769531 0.0390625 0.6875 -0.335938 0.6875 -0.890625 C 0.6875 -1.015625 0.6875 -1.582031 0.6875 -2.59375 C 0.6875 -3.601562 0.695312 -4.851562 0.71875 -6.34375 C 0.738281 -7.84375 0.75 -9.429688 0.75 -11.109375 C 0.75 -12.796875 0.757812 -14.394531 0.78125 -15.90625 C 0.8125 -17.425781 0.828125 -18.710938 0.828125 -19.765625 C 0.828125 -20.816406 0.828125 -21.425781 0.828125 -21.59375 L 0.828125 -22.984375 L 0.890625 -22.984375 C 0.890625 -24.035156 0.863281 -25.285156 0.8125 -26.734375 C 0.769531 -28.191406 0.738281 -29.707031 0.71875 -31.28125 C 0.695312 -32.863281 0.675781 -34.359375 0.65625 -35.765625 C 0.632812 -37.179688 0.625 -38.394531 0.625 -39.40625 Z M 0.625 -39.40625 "/></g></g></g><g fill="#ffffff" fill-opacity="1"><g transform="translate(271.005426, 188.09415)"><g><path d="M 12.8125 -28.40625 C 12.8125 -27.78125 12.8125 -27.148438 12.8125 -26.515625 C 12.8125 -25.890625 12.8125 -25.257812 12.8125 -24.625 C 12.8125 -21.09375 12.8125 -18.367188 12.8125 -16.453125 C 12.8125 -14.535156 12.8125 -13.195312 12.8125 -12.4375 C 12.8125 -11.675781 12.8125 -11.234375 12.8125 -11.109375 C 12.8125 -10.984375 12.8125 -10.921875 12.8125 -10.921875 C 12.8125 -10.285156 12.863281 -9.914062 12.96875 -9.8125 C 13.082031 -9.707031 13.535156 -9.65625 14.328125 -9.65625 C 14.410156 -9.65625 14.515625 -9.65625 14.640625 -9.65625 C 14.773438 -9.65625 14.882812 -9.65625 14.96875 -9.65625 C 19.632812 -9.65625 23.347656 -9.664062 26.109375 -9.6875 C 28.867188 -9.707031 30.941406 -9.664062 32.328125 -9.5625 C 33.710938 -9.457031 34.625 -9.203125 35.0625 -8.796875 C 35.507812 -8.398438 35.722656 -7.789062 35.703125 -6.96875 C 35.679688 -6.15625 35.671875 -5.050781 35.671875 -3.65625 C 35.671875 -2.601562 35.648438 -1.789062 35.609375 -1.21875 C 35.566406 -0.65625 35.269531 -0.238281 34.71875 0.03125 C 34.175781 0.300781 33.164062 0.46875 31.6875 0.53125 C 30.21875 0.59375 28.050781 0.601562 25.1875 0.5625 C 22.332031 0.519531 18.546875 0.5 13.828125 0.5 C 12.441406 0.5 11.335938 0.488281 10.515625 0.46875 C 9.691406 0.445312 9.003906 0.4375 8.453125 0.4375 C 7.910156 0.4375 7.320312 0.4375 6.6875 0.4375 C 6.019531 0.4375 5.304688 0.4375 4.546875 0.4375 C 3.785156 0.4375 3.09375 0.4375 2.46875 0.4375 C 1.914062 0.4375 1.535156 0.382812 1.328125 0.28125 C 1.117188 0.175781 1.015625 -0.0390625 1.015625 -0.375 C 1.015625 -0.675781 1.035156 -0.929688 1.078125 -1.140625 C 1.117188 -1.347656 1.140625 -1.722656 1.140625 -2.265625 C 1.140625 -2.265625 1.140625 -2.625 1.140625 -3.34375 C 1.140625 -4.0625 1.140625 -5.070312 1.140625 -6.375 C 1.140625 -7.71875 1.140625 -9.0625 1.140625 -10.40625 C 1.140625 -11.757812 1.140625 -13.085938 1.140625 -14.390625 C 1.140625 -20.878906 1.117188 -26.226562 1.078125 -30.4375 C 1.035156 -34.644531 0.96875 -37.9375 0.875 -40.3125 C 0.789062 -42.6875 0.726562 -44.359375 0.6875 -45.328125 C 0.644531 -46.296875 0.625 -46.78125 0.625 -46.78125 C 0.625 -47.625 1.003906 -48.046875 1.765625 -48.046875 C 1.765625 -48.046875 1.992188 -48.035156 2.453125 -48.015625 C 2.921875 -47.992188 3.429688 -47.984375 3.984375 -47.984375 C 4.953125 -47.984375 5.914062 -48.015625 6.875 -48.078125 C 7.84375 -48.140625 8.8125 -48.171875 9.78125 -48.171875 C 11.007812 -48.171875 11.84375 -48.097656 12.28125 -47.953125 C 12.71875 -47.804688 12.96875 -47.40625 13.03125 -46.75 C 13.101562 -46.101562 13.140625 -45.019531 13.140625 -43.5 C 13.140625 -43.125 13.125 -42.429688 13.09375 -41.421875 C 13.070312 -40.410156 13.050781 -39.25 13.03125 -37.9375 C 13.007812 -36.632812 12.976562 -35.320312 12.9375 -34 C 12.894531 -32.675781 12.863281 -31.507812 12.84375 -30.5 C 12.820312 -29.488281 12.8125 -28.789062 12.8125 -28.40625 Z M 12.8125 -28.40625 "/></g></g></g><g fill="#ffffff" fill-opacity="1"><g transform="translate(78.030625, 219.910029)"><g><path d="M 0.375 -14.484375 C 0.375 -14.867188 0.367188 -15.164062 0.359375 -15.375 C 0.347656 -15.582031 0.472656 -15.726562 0.734375 -15.8125 C 1.003906 -15.90625 1.535156 -15.960938 2.328125 -15.984375 C 3.117188 -16.015625 4.289062 -16.019531 5.84375 -16 C 7.40625 -15.988281 9.492188 -15.984375 12.109375 -15.984375 C 12.378906 -15.984375 12.515625 -16.144531 12.515625 -16.46875 L 12.515625 -20.078125 C 12.515625 -20.398438 12.351562 -20.5625 12.03125 -20.5625 C 10.59375 -20.5625 9.503906 -20.5625 8.765625 -20.5625 C 8.035156 -20.5625 7.535156 -20.53125 7.265625 -20.46875 C 7.003906 -20.414062 6.867188 -20.328125 6.859375 -20.203125 C 6.847656 -20.078125 6.84375 -19.878906 6.84375 -19.609375 C 6.84375 -19.398438 6.851562 -19.148438 6.875 -18.859375 C 6.894531 -18.578125 6.867188 -18.328125 6.796875 -18.109375 C 6.734375 -17.890625 6.539062 -17.78125 6.21875 -17.78125 C 4.707031 -17.78125 3.550781 -17.78125 2.75 -17.78125 C 1.945312 -17.78125 1.382812 -17.800781 1.0625 -17.84375 C 0.738281 -17.894531 0.546875 -17.976562 0.484375 -18.09375 C 0.429688 -18.207031 0.40625 -18.378906 0.40625 -18.609375 C 0.40625 -18.703125 0.410156 -18.957031 0.421875 -19.375 C 0.441406 -19.800781 0.457031 -20.304688 0.46875 -20.890625 C 0.476562 -21.472656 0.484375 -22.046875 0.484375 -22.609375 C 0.484375 -23.171875 0.488281 -23.644531 0.5 -24.03125 C 0.507812 -24.425781 0.515625 -24.632812 0.515625 -24.65625 C 0.515625 -24.769531 0.507812 -24.96875 0.5 -25.25 C 0.488281 -25.539062 0.484375 -25.695312 0.484375 -25.71875 C 0.484375 -26.039062 0.644531 -26.203125 0.96875 -26.203125 C 0.96875 -26.203125 1.015625 -26.203125 1.109375 -26.203125 C 1.210938 -26.203125 1.3125 -26.203125 1.40625 -26.203125 C 1.59375 -26.203125 1.757812 -26.203125 1.90625 -26.203125 C 2.050781 -26.203125 2.207031 -26.203125 2.375 -26.203125 C 5.195312 -26.203125 7.566406 -26.203125 9.484375 -26.203125 C 11.410156 -26.203125 12.972656 -26.195312 14.171875 -26.1875 C 15.378906 -26.175781 16.304688 -26.171875 16.953125 -26.171875 C 17.597656 -26.171875 18.050781 -26.164062 18.3125 -26.15625 C 18.570312 -26.144531 18.722656 -26.140625 18.765625 -26.140625 C 18.816406 -26.140625 18.84375 -26.140625 18.84375 -26.140625 L 18.875 -26.140625 C 19.0625 -26.140625 19.203125 -26.078125 19.296875 -25.953125 C 19.390625 -25.828125 19.445312 -25.515625 19.46875 -25.015625 C 19.488281 -24.523438 19.5 -23.75 19.5 -22.6875 C 19.5 -21.632812 19.5 -20.179688 19.5 -18.328125 C 19.5 -16.453125 19.507812 -14.554688 19.53125 -12.640625 C 19.550781 -10.722656 19.5625 -8.8125 19.5625 -6.90625 L 19.5625 -1.03125 C 19.5625 -0.5 19.488281 -0.15625 19.34375 0 C 19.195312 0.15625 18.859375 0.234375 18.328125 0.234375 C 18.328125 0.234375 17.925781 0.226562 17.125 0.21875 C 16.320312 0.207031 15.269531 0.203125 13.96875 0.203125 C 13.113281 0.203125 12.265625 0.207031 11.421875 0.21875 C 10.585938 0.226562 9.738281 0.234375 8.875 0.234375 C 6.5625 0.234375 4.242188 0.203125 1.921875 0.140625 C 1.578125 0.117188 1.304688 0.113281 1.109375 0.125 C 0.921875 0.132812 0.769531 0.0195312 0.65625 -0.21875 C 0.539062 -0.457031 0.460938 -0.960938 0.421875 -1.734375 C 0.390625 -2.503906 0.375 -3.664062 0.375 -5.21875 C 0.375 -6.78125 0.375 -8.867188 0.375 -11.484375 C 0.375 -12.078125 0.375 -12.523438 0.375 -12.828125 C 0.375 -13.128906 0.375 -13.394531 0.375 -13.625 C 0.375 -13.851562 0.375 -14.140625 0.375 -14.484375 Z M 6.953125 -6.8125 C 6.953125 -6.1875 6.960938 -5.765625 6.984375 -5.546875 C 7.003906 -5.335938 7.175781 -5.234375 7.5 -5.234375 C 8.25 -5.253906 9 -5.265625 9.75 -5.265625 C 10.5 -5.265625 11.25 -5.265625 12 -5.265625 C 12.34375 -5.265625 12.515625 -5.4375 12.515625 -5.78125 C 12.515625 -5.78125 12.507812 -5.992188 12.5 -6.421875 C 12.488281 -6.859375 12.484375 -7.34375 12.484375 -7.875 C 12.484375 -8.488281 12.488281 -9.003906 12.5 -9.421875 C 12.507812 -9.835938 12.515625 -10.046875 12.515625 -10.046875 C 12.515625 -10.367188 12.398438 -10.535156 12.171875 -10.546875 C 11.941406 -10.554688 11.566406 -10.5625 11.046875 -10.5625 C 10.816406 -10.5625 10.597656 -10.5625 10.390625 -10.5625 C 10.179688 -10.5625 9.960938 -10.5625 9.734375 -10.5625 C 8.953125 -10.5625 8.398438 -10.5625 8.078125 -10.5625 C 7.753906 -10.5625 7.570312 -10.5625 7.53125 -10.5625 C 7.488281 -10.5625 7.46875 -10.5625 7.46875 -10.5625 C 7.125 -10.5625 6.953125 -10.398438 6.953125 -10.078125 C 6.953125 -10.078125 6.953125 -9.75 6.953125 -9.09375 C 6.953125 -8.4375 6.953125 -7.675781 6.953125 -6.8125 Z M 6.953125 -6.8125 "/></g></g></g><g fill="#ffffff" fill-opacity="1"><g transform="translate(99.313877, 219.910029)"><g><path d="M 24.25 -26.171875 L 31.671875 -26.140625 C 31.671875 -22.128906 31.671875 -18.765625 31.671875 -16.046875 C 31.671875 -13.328125 31.675781 -11.117188 31.6875 -9.421875 C 31.695312 -7.722656 31.707031 -6.421875 31.71875 -5.515625 C 31.738281 -4.609375 31.753906 -3.972656 31.765625 -3.609375 C 31.773438 -3.242188 31.78125 -3.035156 31.78125 -2.984375 C 31.78125 -2.941406 31.78125 -2.921875 31.78125 -2.921875 C 31.78125 -1.960938 31.773438 -1.269531 31.765625 -0.84375 C 31.753906 -0.414062 31.695312 -0.148438 31.59375 -0.046875 C 31.488281 0.0546875 31.296875 0.117188 31.015625 0.140625 C 29.347656 0.179688 28.023438 0.210938 27.046875 0.234375 C 26.078125 0.265625 25.535156 0.28125 25.421875 0.28125 C 25.160156 0.28125 25.007812 0.238281 24.96875 0.15625 C 24.925781 0.0703125 24.878906 -0.128906 24.828125 -0.453125 C 24.765625 -1.066406 24.722656 -1.859375 24.703125 -2.828125 C 24.691406 -3.804688 24.695312 -5.054688 24.71875 -6.578125 C 24.75 -8.109375 24.773438 -9.988281 24.796875 -12.21875 C 24.816406 -14.457031 24.828125 -17.148438 24.828125 -20.296875 C 24.828125 -20.609375 24.65625 -20.765625 24.3125 -20.765625 C 24.3125 -20.765625 24.269531 -20.765625 24.1875 -20.765625 C 24.113281 -20.765625 23.832031 -20.765625 23.34375 -20.765625 C 22.863281 -20.765625 22.03125 -20.765625 20.84375 -20.765625 C 20.132812 -20.765625 19.707031 -20.753906 19.5625 -20.734375 C 19.425781 -20.710938 19.359375 -20.566406 19.359375 -20.296875 C 19.359375 -20.265625 19.363281 -19.941406 19.375 -19.328125 C 19.382812 -18.710938 19.394531 -17.921875 19.40625 -16.953125 C 19.425781 -15.992188 19.441406 -14.976562 19.453125 -13.90625 C 19.460938 -12.84375 19.472656 -11.832031 19.484375 -10.875 C 19.492188 -9.925781 19.503906 -9.148438 19.515625 -8.546875 C 19.523438 -7.941406 19.53125 -7.625 19.53125 -7.59375 C 19.53125 -6.726562 19.5 -6.101562 19.4375 -5.71875 C 19.382812 -5.34375 19.265625 -5.117188 19.078125 -5.046875 C 18.898438 -4.984375 18.59375 -4.953125 18.15625 -4.953125 C 16.644531 -4.953125 15.488281 -4.945312 14.6875 -4.9375 C 13.882812 -4.925781 13.328125 -4.957031 13.015625 -5.03125 C 12.703125 -5.113281 12.523438 -5.269531 12.484375 -5.5 C 12.441406 -5.726562 12.421875 -6.082031 12.421875 -6.5625 C 12.421875 -9.15625 12.421875 -11.316406 12.421875 -13.046875 C 12.421875 -14.773438 12.421875 -16.164062 12.421875 -17.21875 C 12.421875 -18.28125 12.410156 -19.078125 12.390625 -19.609375 C 12.378906 -20.148438 12.359375 -20.519531 12.328125 -20.71875 C 12.296875 -20.914062 12.253906 -21.015625 12.203125 -21.015625 C 12.160156 -21.015625 12.09375 -21.015625 12 -21.015625 C 10.625 -21.015625 9.585938 -21.007812 8.890625 -21 C 8.191406 -20.988281 7.710938 -20.957031 7.453125 -20.90625 C 7.203125 -20.863281 7.078125 -20.789062 7.078125 -20.6875 C 7.078125 -20.582031 7.078125 -20.453125 7.078125 -20.296875 C 7.015625 -18.347656 6.945312 -16.476562 6.875 -14.6875 C 6.8125 -12.894531 6.78125 -11.023438 6.78125 -9.078125 C 6.78125 -8.460938 6.785156 -7.695312 6.796875 -6.78125 C 6.804688 -5.863281 6.8125 -4.957031 6.8125 -4.0625 C 6.8125 -3.164062 6.816406 -2.410156 6.828125 -1.796875 C 6.835938 -1.191406 6.84375 -0.890625 6.84375 -0.890625 C 6.84375 -0.597656 6.820312 -0.375 6.78125 -0.21875 C 6.75 -0.0703125 6.578125 0.0195312 6.265625 0.0625 C 5.960938 0.113281 5.425781 0.132812 4.65625 0.125 C 3.894531 0.113281 2.765625 0.109375 1.265625 0.109375 C 1.035156 0.109375 0.859375 0.0664062 0.734375 -0.015625 C 0.609375 -0.0976562 0.519531 -0.316406 0.46875 -0.671875 C 0.425781 -1.023438 0.40625 -1.609375 0.40625 -2.421875 C 0.40625 -3.234375 0.410156 -4.367188 0.421875 -5.828125 C 0.441406 -7.285156 0.453125 -9.160156 0.453125 -11.453125 C 0.453125 -12.460938 0.453125 -13.222656 0.453125 -13.734375 C 0.453125 -14.253906 0.441406 -14.671875 0.421875 -14.984375 C 0.410156 -15.304688 0.398438 -15.640625 0.390625 -15.984375 C 0.378906 -16.328125 0.367188 -16.800781 0.359375 -17.40625 C 0.347656 -18.019531 0.34375 -18.890625 0.34375 -20.015625 C 0.34375 -21.140625 0.34375 -22.640625 0.34375 -24.515625 C 0.34375 -25.066406 0.363281 -25.472656 0.40625 -25.734375 C 0.457031 -26.003906 0.601562 -26.179688 0.84375 -26.265625 C 1.082031 -26.359375 1.507812 -26.398438 2.125 -26.390625 C 2.75 -26.378906 3.625 -26.375 4.75 -26.375 C 5.570312 -26.375 6.234375 -26.367188 6.734375 -26.359375 C 7.242188 -26.347656 7.691406 -26.335938 8.078125 -26.328125 C 8.472656 -26.316406 8.890625 -26.304688 9.328125 -26.296875 C 9.773438 -26.285156 10.347656 -26.269531 11.046875 -26.25 C 11.753906 -26.238281 12.679688 -26.234375 13.828125 -26.234375 C 15.222656 -26.234375 16.351562 -26.234375 17.21875 -26.234375 C 18.09375 -26.234375 18.78125 -26.226562 19.28125 -26.21875 C 19.789062 -26.207031 20.203125 -26.203125 20.515625 -26.203125 C 20.828125 -26.203125 21.125 -26.195312 21.40625 -26.1875 C 21.695312 -26.175781 22.054688 -26.171875 22.484375 -26.171875 C 22.921875 -26.171875 23.507812 -26.171875 24.25 -26.171875 Z M 24.25 -26.171875 "/></g></g></g><g fill="#ffffff" fill-opacity="1"><g transform="translate(132.803202, 219.910029)"><g><path d="M 0.375 -18.75 C 0.375 -20.414062 0.378906 -21.757812 0.390625 -22.78125 C 0.398438 -23.800781 0.429688 -24.570312 0.484375 -25.09375 C 0.546875 -25.625 0.644531 -25.988281 0.78125 -26.1875 C 0.925781 -26.382812 1.132812 -26.488281 1.40625 -26.5 C 1.6875 -26.507812 2.039062 -26.515625 2.46875 -26.515625 C 2.632812 -26.515625 3.082031 -26.507812 3.8125 -26.5 C 4.550781 -26.488281 5.453125 -26.46875 6.515625 -26.4375 C 7.578125 -26.414062 8.695312 -26.390625 9.875 -26.359375 C 11.0625 -26.328125 12.191406 -26.296875 13.265625 -26.265625 C 14.347656 -26.242188 15.257812 -26.226562 16 -26.21875 C 16.75 -26.207031 17.21875 -26.203125 17.40625 -26.203125 C 17.5 -26.203125 17.585938 -26.203125 17.671875 -26.203125 C 17.765625 -26.203125 17.820312 -26.203125 17.84375 -26.203125 C 18.257812 -26.203125 18.59375 -26.15625 18.84375 -26.0625 C 19.09375 -25.976562 19.273438 -25.765625 19.390625 -25.421875 C 19.503906 -25.078125 19.582031 -24.523438 19.625 -23.765625 C 19.675781 -23.003906 19.703125 -21.976562 19.703125 -20.6875 C 19.703125 -19.394531 19.703125 -17.738281 19.703125 -15.71875 C 19.703125 -15.71875 19.695312 -15.394531 19.6875 -14.75 C 19.675781 -14.113281 19.660156 -13.269531 19.640625 -12.21875 C 19.617188 -11.175781 19.59375 -10.054688 19.5625 -8.859375 C 19.539062 -7.671875 19.523438 -6.507812 19.515625 -5.375 C 19.503906 -4.25 19.488281 -3.265625 19.46875 -2.421875 C 19.445312 -1.585938 19.4375 -1.019531 19.4375 -0.71875 C 19.4375 -0.46875 19.410156 -0.265625 19.359375 -0.109375 C 19.316406 0.0351562 19.109375 0.132812 18.734375 0.1875 C 18.367188 0.25 17.734375 0.285156 16.828125 0.296875 C 15.921875 0.304688 14.613281 0.304688 12.90625 0.296875 C 11.207031 0.285156 8.976562 0.28125 6.21875 0.28125 C 5.007812 0.28125 3.953125 0.253906 3.046875 0.203125 C 2.140625 0.160156 1.6875 0.140625 1.6875 0.140625 C 1.5 0.140625 1.363281 0.144531 1.28125 0.15625 C 1.207031 0.164062 1.125 0.171875 1.03125 0.171875 C 0.570312 0.171875 0.34375 -0.0546875 0.34375 -0.515625 C 0.34375 -0.515625 0.363281 -1.109375 0.40625 -2.296875 C 0.457031 -3.492188 0.484375 -5.113281 0.484375 -7.15625 C 0.484375 -9.082031 0.460938 -11.015625 0.421875 -12.953125 C 0.390625 -14.890625 0.375 -16.820312 0.375 -18.75 Z M 7.328125 -5.953125 C 7.328125 -5.785156 7.335938 -5.660156 7.359375 -5.578125 C 7.378906 -5.503906 7.503906 -5.445312 7.734375 -5.40625 C 7.960938 -5.375 8.390625 -5.359375 9.015625 -5.359375 C 9.648438 -5.359375 10.585938 -5.359375 11.828125 -5.359375 C 12.015625 -5.359375 12.144531 -5.367188 12.21875 -5.390625 C 12.300781 -5.421875 12.351562 -5.535156 12.375 -5.734375 C 12.40625 -5.941406 12.421875 -6.3125 12.421875 -6.84375 C 12.421875 -7.375 12.421875 -8.128906 12.421875 -9.109375 C 12.421875 -9.753906 12.421875 -10.394531 12.421875 -11.03125 C 12.421875 -11.675781 12.421875 -12.320312 12.421875 -12.96875 C 12.421875 -13.144531 12.421875 -13.332031 12.421875 -13.53125 C 12.421875 -13.726562 12.421875 -13.914062 12.421875 -14.09375 C 12.421875 -14.488281 12.421875 -14.882812 12.421875 -15.28125 C 12.421875 -15.6875 12.421875 -16.082031 12.421875 -16.46875 C 12.421875 -17.6875 12.429688 -18.632812 12.453125 -19.3125 C 12.472656 -19.988281 12.484375 -20.328125 12.484375 -20.328125 C 12.484375 -20.484375 12.445312 -20.585938 12.375 -20.640625 C 12.3125 -20.703125 12.0625 -20.734375 11.625 -20.734375 C 11.1875 -20.734375 10.429688 -20.734375 9.359375 -20.734375 C 8.960938 -20.734375 8.632812 -20.742188 8.375 -20.765625 C 8.113281 -20.796875 7.910156 -20.734375 7.765625 -20.578125 C 7.628906 -20.429688 7.523438 -20.09375 7.453125 -19.5625 C 7.390625 -19.039062 7.347656 -18.238281 7.328125 -17.15625 C 7.304688 -16.082031 7.300781 -14.640625 7.3125 -12.828125 C 7.320312 -11.015625 7.328125 -8.722656 7.328125 -5.953125 Z M 7.328125 -5.953125 "/></g></g></g><g fill="#ffffff" fill-opacity="1"><g transform="translate(154.223992, 219.910029)"><g><path d="M 14.09375 -10.484375 C 15.351562 -8.421875 16.375 -6.75 17.15625 -5.46875 C 17.9375 -4.1875 18.53125 -3.191406 18.9375 -2.484375 C 19.351562 -1.785156 19.65625 -1.28125 19.84375 -0.96875 C 20.03125 -0.664062 20.132812 -0.472656 20.15625 -0.390625 C 20.175781 -0.316406 20.1875 -0.242188 20.1875 -0.171875 C 20.1875 0.078125 19.957031 0.203125 19.5 0.203125 C 18.164062 0.203125 17.101562 0.207031 16.3125 0.21875 C 15.519531 0.226562 14.890625 0.1875 14.421875 0.09375 C 13.953125 0.0078125 13.546875 -0.191406 13.203125 -0.515625 C 12.859375 -0.835938 12.46875 -1.316406 12.03125 -1.953125 C 11.601562 -2.597656 11.035156 -3.46875 10.328125 -4.5625 C 9.628906 -5.664062 8.675781 -7.046875 7.46875 -8.703125 C 7.351562 -8.585938 7.296875 -8.445312 7.296875 -8.28125 C 7.296875 -8.28125 7.300781 -8.238281 7.3125 -8.15625 C 7.320312 -8.082031 7.328125 -7.882812 7.328125 -7.5625 C 7.328125 -6.894531 7.320312 -6.21875 7.3125 -5.53125 C 7.300781 -4.84375 7.296875 -4.171875 7.296875 -3.515625 C 7.296875 -2.703125 7.304688 -2.035156 7.328125 -1.515625 C 7.347656 -1.003906 7.359375 -0.75 7.359375 -0.75 C 7.359375 -0.320312 7.238281 -0.0703125 7 0 C 6.757812 0.0703125 6.429688 0.109375 6.015625 0.109375 C 5.628906 0.109375 5.238281 0.109375 4.84375 0.109375 C 4.457031 0.109375 4.070312 0.109375 3.6875 0.109375 C 2.90625 0.109375 2.257812 0.128906 1.75 0.171875 C 1.25 0.210938 1 0.234375 1 0.234375 C 0.582031 0.234375 0.375 -0.015625 0.375 -0.515625 C 0.375 -0.515625 0.378906 -0.625 0.390625 -0.84375 C 0.398438 -1.0625 0.40625 -1.285156 0.40625 -1.515625 C 0.40625 -1.972656 0.394531 -2.421875 0.375 -2.859375 C 0.351562 -3.296875 0.34375 -3.726562 0.34375 -4.15625 C 0.34375 -8.050781 0.34375 -11.300781 0.34375 -13.90625 C 0.34375 -16.507812 0.347656 -18.613281 0.359375 -20.21875 C 0.367188 -21.820312 0.394531 -23.035156 0.4375 -23.859375 C 0.488281 -24.691406 0.550781 -25.257812 0.625 -25.5625 C 0.707031 -25.875 0.816406 -26.039062 0.953125 -26.0625 C 1.097656 -26.09375 1.273438 -26.109375 1.484375 -26.109375 C 3.660156 -26.148438 5.351562 -26.1875 6.5625 -26.21875 C 7.78125 -26.257812 8.65625 -26.285156 9.1875 -26.296875 C 9.726562 -26.304688 10.0625 -26.316406 10.1875 -26.328125 C 10.320312 -26.335938 10.390625 -26.34375 10.390625 -26.34375 C 12.628906 -26.34375 14.484375 -25.957031 15.953125 -25.1875 C 17.421875 -24.425781 18.515625 -23.445312 19.234375 -22.25 C 19.960938 -21.0625 20.328125 -19.820312 20.328125 -18.53125 C 20.328125 -16.425781 19.773438 -14.738281 18.671875 -13.46875 C 17.566406 -12.195312 16.039062 -11.203125 14.09375 -10.484375 Z M 8.671875 -16.265625 C 8.691406 -16.265625 8.878906 -16.265625 9.234375 -16.265625 C 9.585938 -16.265625 9.984375 -16.269531 10.421875 -16.28125 C 10.859375 -16.289062 11.234375 -16.296875 11.546875 -16.296875 C 11.867188 -16.296875 12.019531 -16.296875 12 -16.296875 C 12.476562 -16.296875 12.84375 -16.46875 13.09375 -16.8125 C 13.351562 -17.15625 13.484375 -17.546875 13.484375 -17.984375 C 13.484375 -18.722656 13.273438 -19.273438 12.859375 -19.640625 C 12.453125 -20.003906 12.097656 -20.1875 11.796875 -20.1875 C 11.679688 -20.1875 11.566406 -20.1875 11.453125 -20.1875 C 11.335938 -20.1875 11.222656 -20.1875 11.109375 -20.1875 C 9.867188 -20.1875 8.972656 -20.1875 8.421875 -20.1875 C 7.867188 -20.1875 7.523438 -20.148438 7.390625 -20.078125 C 7.253906 -20.015625 7.1875 -19.878906 7.1875 -19.671875 C 7.1875 -19.671875 7.191406 -19.382812 7.203125 -18.8125 C 7.210938 -18.238281 7.21875 -17.582031 7.21875 -16.84375 C 7.21875 -16.820312 7.21875 -16.804688 7.21875 -16.796875 C 7.21875 -16.785156 7.21875 -16.78125 7.21875 -16.78125 C 7.21875 -16.4375 7.390625 -16.265625 7.734375 -16.265625 C 7.734375 -16.265625 7.816406 -16.265625 7.984375 -16.265625 C 8.160156 -16.265625 8.390625 -16.265625 8.671875 -16.265625 Z M 8.671875 -16.265625 "/></g></g></g><g fill="#ffffff" fill-opacity="1"><g transform="translate(176.263675, 219.910029)"><g><path d="M 0.625 -1.3125 C 0.625 -1.3125 0.609375 -1.664062 0.578125 -2.375 C 0.554688 -3.082031 0.535156 -4.03125 0.515625 -5.21875 C 0.492188 -6.414062 0.460938 -7.753906 0.421875 -9.234375 C 0.390625 -10.710938 0.367188 -12.234375 0.359375 -13.796875 C 0.347656 -15.367188 0.34375 -16.894531 0.34375 -18.375 C 0.34375 -19.851562 0.359375 -21.1875 0.390625 -22.375 C 0.429688 -23.570312 0.484375 -24.519531 0.546875 -25.21875 C 0.617188 -25.925781 0.710938 -26.28125 0.828125 -26.28125 C 0.828125 -26.28125 0.972656 -26.285156 1.265625 -26.296875 C 1.566406 -26.304688 1.925781 -26.320312 2.34375 -26.34375 C 2.769531 -26.363281 3.179688 -26.375 3.578125 -26.375 C 4.472656 -26.375 5.175781 -26.363281 5.6875 -26.34375 C 6.207031 -26.320312 6.59375 -26.210938 6.84375 -26.015625 C 7.09375 -25.816406 7.25 -25.484375 7.3125 -25.015625 C 7.382812 -24.546875 7.414062 -23.875 7.40625 -23 C 7.394531 -22.132812 7.390625 -21.003906 7.390625 -19.609375 C 7.390625 -17.222656 7.363281 -14.84375 7.3125 -12.46875 C 7.269531 -10.09375 7.226562 -7.710938 7.1875 -5.328125 C 7.164062 -3.910156 7.160156 -2.804688 7.171875 -2.015625 C 7.179688 -1.222656 7.117188 -0.648438 6.984375 -0.296875 C 6.847656 0.0546875 6.5625 0.28125 6.125 0.375 C 5.6875 0.46875 5.007812 0.515625 4.09375 0.515625 C 3.65625 0.515625 3.222656 0.503906 2.796875 0.484375 C 2.378906 0.460938 1.941406 0.453125 1.484375 0.453125 L 1.4375 0.453125 C 1.09375 0.453125 0.867188 0.347656 0.765625 0.140625 C 0.671875 -0.0664062 0.625 -0.320312 0.625 -0.625 C 0.625 -0.738281 0.625 -0.851562 0.625 -0.96875 C 0.625 -1.082031 0.625 -1.195312 0.625 -1.3125 Z M 0.625 -1.3125 "/></g></g></g><g fill="#ffffff" fill-opacity="1"><g transform="translate(185.409631, 219.910029)"><g><path d="M 24.25 -26.171875 L 31.671875 -26.140625 C 31.671875 -22.128906 31.671875 -18.765625 31.671875 -16.046875 C 31.671875 -13.328125 31.675781 -11.117188 31.6875 -9.421875 C 31.695312 -7.722656 31.707031 -6.421875 31.71875 -5.515625 C 31.738281 -4.609375 31.753906 -3.972656 31.765625 -3.609375 C 31.773438 -3.242188 31.78125 -3.035156 31.78125 -2.984375 C 31.78125 -2.941406 31.78125 -2.921875 31.78125 -2.921875 C 31.78125 -1.960938 31.773438 -1.269531 31.765625 -0.84375 C 31.753906 -0.414062 31.695312 -0.148438 31.59375 -0.046875 C 31.488281 0.0546875 31.296875 0.117188 31.015625 0.140625 C 29.347656 0.179688 28.023438 0.210938 27.046875 0.234375 C 26.078125 0.265625 25.535156 0.28125 25.421875 0.28125 C 25.160156 0.28125 25.007812 0.238281 24.96875 0.15625 C 24.925781 0.0703125 24.878906 -0.128906 24.828125 -0.453125 C 24.765625 -1.066406 24.722656 -1.859375 24.703125 -2.828125 C 24.691406 -3.804688 24.695312 -5.054688 24.71875 -6.578125 C 24.75 -8.109375 24.773438 -9.988281 24.796875 -12.21875 C 24.816406 -14.457031 24.828125 -17.148438 24.828125 -20.296875 C 24.828125 -20.609375 24.65625 -20.765625 24.3125 -20.765625 C 24.3125 -20.765625 24.269531 -20.765625 24.1875 -20.765625 C 24.113281 -20.765625 23.832031 -20.765625 23.34375 -20.765625 C 22.863281 -20.765625 22.03125 -20.765625 20.84375 -20.765625 C 20.132812 -20.765625 19.707031 -20.753906 19.5625 -20.734375 C 19.425781 -20.710938 19.359375 -20.566406 19.359375 -20.296875 C 19.359375 -20.265625 19.363281 -19.941406 19.375 -19.328125 C 19.382812 -18.710938 19.394531 -17.921875 19.40625 -16.953125 C 19.425781 -15.992188 19.441406 -14.976562 19.453125 -13.90625 C 19.460938 -12.84375 19.472656 -11.832031 19.484375 -10.875 C 19.492188 -9.925781 19.503906 -9.148438 19.515625 -8.546875 C 19.523438 -7.941406 19.53125 -7.625 19.53125 -7.59375 C 19.53125 -6.726562 19.5 -6.101562 19.4375 -5.71875 C 19.382812 -5.34375 19.265625 -5.117188 19.078125 -5.046875 C 18.898438 -4.984375 18.59375 -4.953125 18.15625 -4.953125 C 16.644531 -4.953125 15.488281 -4.945312 14.6875 -4.9375 C 13.882812 -4.925781 13.328125 -4.957031 13.015625 -5.03125 C 12.703125 -5.113281 12.523438 -5.269531 12.484375 -5.5 C 12.441406 -5.726562 12.421875 -6.082031 12.421875 -6.5625 C 12.421875 -9.15625 12.421875 -11.316406 12.421875 -13.046875 C 12.421875 -14.773438 12.421875 -16.164062 12.421875 -17.21875 C 12.421875 -18.28125 12.410156 -19.078125 12.390625 -19.609375 C 12.378906 -20.148438 12.359375 -20.519531 12.328125 -20.71875 C 12.296875 -20.914062 12.253906 -21.015625 12.203125 -21.015625 C 12.160156 -21.015625 12.09375 -21.015625 12 -21.015625 C 10.625 -21.015625 9.585938 -21.007812 8.890625 -21 C 8.191406 -20.988281 7.710938 -20.957031 7.453125 -20.90625 C 7.203125 -20.863281 7.078125 -20.789062 7.078125 -20.6875 C 7.078125 -20.582031 7.078125 -20.453125 7.078125 -20.296875 C 7.015625 -18.347656 6.945312 -16.476562 6.875 -14.6875 C 6.8125 -12.894531 6.78125 -11.023438 6.78125 -9.078125 C 6.78125 -8.460938 6.785156 -7.695312 6.796875 -6.78125 C 6.804688 -5.863281 6.8125 -4.957031 6.8125 -4.0625 C 6.8125 -3.164062 6.816406 -2.410156 6.828125 -1.796875 C 6.835938 -1.191406 6.84375 -0.890625 6.84375 -0.890625 C 6.84375 -0.597656 6.820312 -0.375 6.78125 -0.21875 C 6.75 -0.0703125 6.578125 0.0195312 6.265625 0.0625 C 5.960938 0.113281 5.425781 0.132812 4.65625 0.125 C 3.894531 0.113281 2.765625 0.109375 1.265625 0.109375 C 1.035156 0.109375 0.859375 0.0664062 0.734375 -0.015625 C 0.609375 -0.0976562 0.519531 -0.316406 0.46875 -0.671875 C 0.425781 -1.023438 0.40625 -1.609375 0.40625 -2.421875 C 0.40625 -3.234375 0.410156 -4.367188 0.421875 -5.828125 C 0.441406 -7.285156 0.453125 -9.160156 0.453125 -11.453125 C 0.453125 -12.460938 0.453125 -13.222656 0.453125 -13.734375 C 0.453125 -14.253906 0.441406 -14.671875 0.421875 -14.984375 C 0.410156 -15.304688 0.398438 -15.640625 0.390625 -15.984375 C 0.378906 -16.328125 0.367188 -16.800781 0.359375 -17.40625 C 0.347656 -18.019531 0.34375 -18.890625 0.34375 -20.015625 C 0.34375 -21.140625 0.34375 -22.640625 0.34375 -24.515625 C 0.34375 -25.066406 0.363281 -25.472656 0.40625 -25.734375 C 0.457031 -26.003906 0.601562 -26.179688 0.84375 -26.265625 C 1.082031 -26.359375 1.507812 -26.398438 2.125 -26.390625 C 2.75 -26.378906 3.625 -26.375 4.75 -26.375 C 5.570312 -26.375 6.234375 -26.367188 6.734375 -26.359375 C 7.242188 -26.347656 7.691406 -26.335938 8.078125 -26.328125 C 8.472656 -26.316406 8.890625 -26.304688 9.328125 -26.296875 C 9.773438 -26.285156 10.347656 -26.269531 11.046875 -26.25 C 11.753906 -26.238281 12.679688 -26.234375 13.828125 -26.234375 C 15.222656 -26.234375 16.351562 -26.234375 17.21875 -26.234375 C 18.09375 -26.234375 18.78125 -26.226562 19.28125 -26.21875 C 19.789062 -26.207031 20.203125 -26.203125 20.515625 -26.203125 C 20.828125 -26.203125 21.125 -26.195312 21.40625 -26.1875 C 21.695312 -26.175781 22.054688 -26.171875 22.484375 -26.171875 C 22.921875 -26.171875 23.507812 -26.171875 24.25 -26.171875 Z M 24.25 -26.171875 "/></g></g></g><g fill="#ffffff" fill-opacity="1"><g transform="translate(218.898956, 219.910029)"><g><path d="M 4.984375 0.28125 C 4.691406 0.28125 4.472656 0.28125 4.328125 0.28125 C 4.191406 0.28125 4.070312 0.285156 3.96875 0.296875 C 3.863281 0.304688 3.6875 0.3125 3.4375 0.3125 C 3.1875 0.3125 2.785156 0.3125 2.234375 0.3125 C 1.546875 0.3125 1.078125 0.289062 0.828125 0.25 C 0.578125 0.21875 0.429688 0.03125 0.390625 -0.3125 C 0.359375 -0.65625 0.34375 -1.304688 0.34375 -2.265625 C 0.34375 -3.140625 0.359375 -3.78125 0.390625 -4.1875 C 0.429688 -4.601562 0.5 -4.878906 0.59375 -5.015625 C 0.695312 -5.160156 0.851562 -5.234375 1.0625 -5.234375 C 1.0625 -5.234375 1.207031 -5.222656 1.5 -5.203125 C 1.800781 -5.191406 2.171875 -5.1875 2.609375 -5.1875 C 3.273438 -5.1875 3.984375 -5.195312 4.734375 -5.21875 C 5.492188 -5.25 6.0625 -5.265625 6.4375 -5.265625 C 6.632812 -5.265625 6.789062 -5.234375 6.90625 -5.171875 C 7.019531 -5.117188 7.097656 -4.941406 7.140625 -4.640625 C 7.191406 -4.347656 7.222656 -3.875 7.234375 -3.21875 C 7.242188 -2.5625 7.25 -1.625 7.25 -0.40625 C 7.25 0.0195312 7.101562 0.238281 6.8125 0.25 C 6.53125 0.269531 5.921875 0.28125 4.984375 0.28125 Z M 4.984375 0.28125 "/></g></g></g><g fill="#ffffff" fill-opacity="1"><g transform="translate(227.872994, 219.910029)"><g><path d="M 0.578125 -13.6875 C 0.578125 -14.53125 0.578125 -15.363281 0.578125 -16.1875 C 0.578125 -17.019531 0.578125 -17.859375 0.578125 -18.703125 C 0.578125 -20.398438 0.5625 -21.765625 0.53125 -22.796875 C 0.5 -23.828125 0.546875 -24.597656 0.671875 -25.109375 C 0.796875 -25.628906 1.082031 -25.972656 1.53125 -26.140625 C 1.976562 -26.316406 2.675781 -26.40625 3.625 -26.40625 C 4.582031 -26.40625 5.875 -26.40625 7.5 -26.40625 C 10.207031 -26.40625 12.390625 -26.222656 14.046875 -25.859375 C 15.710938 -25.492188 16.976562 -24.941406 17.84375 -24.203125 C 18.71875 -23.472656 19.328125 -22.550781 19.671875 -21.4375 C 20.015625 -20.332031 20.203125 -19.039062 20.234375 -17.5625 C 20.273438 -16.082031 20.296875 -14.398438 20.296875 -12.515625 C 20.296875 -11.367188 20.269531 -10.210938 20.21875 -9.046875 C 20.175781 -7.878906 20.117188 -6.707031 20.046875 -5.53125 C 19.984375 -4.300781 19.554688 -3.273438 18.765625 -2.453125 C 17.972656 -1.640625 16.957031 -1 15.71875 -0.53125 C 14.476562 -0.0625 13.148438 0.265625 11.734375 0.453125 C 10.328125 0.648438 8.984375 0.75 7.703125 0.75 C 6.804688 0.75 5.925781 0.726562 5.0625 0.6875 C 4.207031 0.644531 3.195312 0.609375 2.03125 0.578125 C 1.707031 0.578125 1.4375 0.539062 1.21875 0.46875 C 1 0.40625 0.828125 0.222656 0.703125 -0.078125 C 0.578125 -0.390625 0.484375 -0.914062 0.421875 -1.65625 C 0.367188 -2.40625 0.34375 -3.46875 0.34375 -4.84375 C 0.34375 -5.007812 0.347656 -5.40625 0.359375 -6.03125 C 0.367188 -6.664062 0.382812 -7.40625 0.40625 -8.25 C 0.4375 -9.101562 0.46875 -9.941406 0.5 -10.765625 C 0.53125 -11.585938 0.550781 -12.273438 0.5625 -12.828125 C 0.570312 -13.378906 0.578125 -13.664062 0.578125 -13.6875 Z M 7.765625 -16.984375 C 7.765625 -16.347656 7.765625 -15.71875 7.765625 -15.09375 C 7.765625 -14.476562 7.765625 -13.859375 7.765625 -13.234375 C 7.765625 -13.171875 7.765625 -13.097656 7.765625 -13.015625 C 7.765625 -12.929688 7.765625 -12.847656 7.765625 -12.765625 C 7.765625 -10.972656 7.765625 -9.601562 7.765625 -8.65625 C 7.765625 -7.71875 7.765625 -7.054688 7.765625 -6.671875 C 7.765625 -6.285156 7.789062 -6.0625 7.84375 -6 C 7.90625 -5.945312 7.984375 -5.921875 8.078125 -5.921875 C 9.503906 -5.921875 10.5625 -6.160156 11.25 -6.640625 C 11.9375 -7.117188 12.378906 -7.765625 12.578125 -8.578125 C 12.785156 -9.390625 12.890625 -10.3125 12.890625 -11.34375 C 12.890625 -12.3125 12.84375 -13.289062 12.75 -14.28125 C 12.664062 -15.28125 12.566406 -16.253906 12.453125 -17.203125 C 12.378906 -17.773438 12.234375 -18.316406 12.015625 -18.828125 C 11.796875 -19.347656 11.394531 -19.769531 10.8125 -20.09375 C 10.226562 -20.425781 9.351562 -20.59375 8.1875 -20.59375 C 8.019531 -20.59375 7.90625 -20.546875 7.84375 -20.453125 C 7.789062 -20.367188 7.765625 -20.078125 7.765625 -19.578125 C 7.765625 -19.085938 7.765625 -18.222656 7.765625 -16.984375 Z M 7.765625 -16.984375 "/></g></g></g><g fill="#ffffff" fill-opacity="1"><g transform="translate(249.878297, 219.910029)"><g><path d="M 0.34375 -21.453125 C 0.34375 -22.117188 0.359375 -22.789062 0.390625 -23.46875 C 0.429688 -24.144531 0.460938 -24.828125 0.484375 -25.515625 C 0.484375 -25.953125 0.664062 -26.171875 1.03125 -26.171875 C 1.03125 -26.171875 1.160156 -26.160156 1.421875 -26.140625 C 1.691406 -26.117188 2 -26.109375 2.34375 -26.109375 C 6.238281 -26.109375 9.328125 -26.128906 11.609375 -26.171875 C 13.890625 -26.210938 15.519531 -26.253906 16.5 -26.296875 C 17.488281 -26.347656 17.984375 -26.375 17.984375 -26.375 C 18.578125 -26.375 18.914062 -26.21875 19 -25.90625 C 19.082031 -25.601562 19.125 -25.023438 19.125 -24.171875 C 19.125 -23.484375 19.125 -22.976562 19.125 -22.65625 C 19.125 -22.34375 19.117188 -22.113281 19.109375 -21.96875 C 19.097656 -21.832031 19.066406 -21.6875 19.015625 -21.53125 C 18.953125 -21.320312 18.882812 -21.15625 18.8125 -21.03125 C 18.738281 -20.90625 18.550781 -20.804688 18.25 -20.734375 C 17.957031 -20.671875 17.441406 -20.625 16.703125 -20.59375 C 15.972656 -20.570312 14.921875 -20.5625 13.546875 -20.5625 C 12.859375 -20.5625 12.109375 -20.566406 11.296875 -20.578125 C 10.484375 -20.585938 9.789062 -20.601562 9.21875 -20.625 C 8.644531 -20.65625 8.359375 -20.671875 8.359375 -20.671875 C 8.304688 -20.671875 8.257812 -20.671875 8.21875 -20.671875 C 8.175781 -20.671875 8.128906 -20.671875 8.078125 -20.671875 C 8.015625 -20.671875 7.945312 -20.671875 7.875 -20.671875 C 7.800781 -20.671875 7.765625 -20.671875 7.765625 -20.671875 C 7.453125 -20.671875 7.296875 -20.5 7.296875 -20.15625 C 7.296875 -19.144531 7.296875 -18.367188 7.296875 -17.828125 C 7.296875 -17.285156 7.304688 -16.90625 7.328125 -16.6875 C 7.347656 -16.476562 7.382812 -16.351562 7.4375 -16.3125 C 7.5 -16.28125 7.597656 -16.265625 7.734375 -16.265625 C 7.734375 -16.265625 7.910156 -16.269531 8.265625 -16.28125 C 8.617188 -16.289062 8.984375 -16.296875 9.359375 -16.296875 C 10.679688 -16.296875 11.707031 -16.285156 12.4375 -16.265625 C 13.175781 -16.242188 13.707031 -16.144531 14.03125 -15.96875 C 14.351562 -15.800781 14.546875 -15.503906 14.609375 -15.078125 C 14.679688 -14.648438 14.71875 -14.035156 14.71875 -13.234375 C 14.71875 -12.597656 14.6875 -12.101562 14.625 -11.75 C 14.570312 -11.394531 14.363281 -11.132812 14 -10.96875 C 13.632812 -10.8125 12.984375 -10.707031 12.046875 -10.65625 C 11.117188 -10.613281 9.773438 -10.582031 8.015625 -10.5625 C 7.804688 -10.5625 7.648438 -10.554688 7.546875 -10.546875 C 7.441406 -10.535156 7.375 -10.40625 7.34375 -10.15625 C 7.3125 -9.914062 7.296875 -9.460938 7.296875 -8.796875 C 7.296875 -8.140625 7.296875 -7.164062 7.296875 -5.875 C 7.296875 -5.582031 7.316406 -5.394531 7.359375 -5.3125 C 7.398438 -5.226562 7.570312 -5.1875 7.875 -5.1875 C 8.539062 -5.1875 9.300781 -5.191406 10.15625 -5.203125 C 11.019531 -5.222656 11.882812 -5.242188 12.75 -5.265625 C 13.625 -5.285156 14.429688 -5.300781 15.171875 -5.3125 C 15.921875 -5.320312 16.523438 -5.332031 16.984375 -5.34375 C 17.441406 -5.351562 17.671875 -5.359375 17.671875 -5.359375 C 18.046875 -5.359375 18.40625 -5.316406 18.75 -5.234375 C 19.09375 -5.160156 19.273438 -4.835938 19.296875 -4.265625 C 19.316406 -3.828125 19.335938 -3.398438 19.359375 -2.984375 C 19.378906 -2.578125 19.390625 -2.164062 19.390625 -1.75 C 19.390625 -1.25 19.378906 -0.859375 19.359375 -0.578125 C 19.335938 -0.304688 19.222656 -0.101562 19.015625 0.03125 C 18.804688 0.164062 18.429688 0.25 17.890625 0.28125 C 17.359375 0.320312 16.582031 0.335938 15.5625 0.328125 C 14.539062 0.316406 13.191406 0.3125 11.515625 0.3125 C 10.078125 0.3125 8.628906 0.304688 7.171875 0.296875 C 5.710938 0.285156 4.25 0.28125 2.78125 0.28125 C 2.34375 0.28125 1.945312 0.285156 1.59375 0.296875 C 1.238281 0.304688 1.0625 0.3125 1.0625 0.3125 C 0.789062 0.3125 0.609375 0.253906 0.515625 0.140625 C 0.421875 0.0234375 0.375 -0.179688 0.375 -0.484375 C 0.375 -0.546875 0.375 -0.851562 0.375 -1.40625 C 0.375 -1.957031 0.378906 -2.640625 0.390625 -3.453125 C 0.398438 -4.265625 0.40625 -5.128906 0.40625 -6.046875 C 0.40625 -6.960938 0.410156 -7.832031 0.421875 -8.65625 C 0.441406 -9.488281 0.453125 -10.191406 0.453125 -10.765625 C 0.453125 -11.335938 0.453125 -11.671875 0.453125 -11.765625 L 0.453125 -12.515625 L 0.484375 -12.515625 C 0.484375 -13.085938 0.46875 -13.769531 0.4375 -14.5625 C 0.414062 -15.351562 0.398438 -16.175781 0.390625 -17.03125 C 0.378906 -17.894531 0.367188 -18.710938 0.359375 -19.484375 C 0.347656 -20.253906 0.34375 -20.910156 0.34375 -21.453125 Z M 0.34375 -21.453125 "/></g></g></g><g fill="#ffffff" fill-opacity="1"><g transform="translate(270.989633, 219.910029)"><g><path d="M 0.34375 -25.859375 C 0.34375 -26.066406 0.46875 -26.203125 0.71875 -26.265625 C 0.96875 -26.335938 1.257812 -26.375 1.59375 -26.375 C 1.925781 -26.375 2.234375 -26.375 2.515625 -26.375 C 3.890625 -26.375 4.878906 -26.359375 5.484375 -26.328125 C 6.085938 -26.296875 6.488281 -26.210938 6.6875 -26.078125 C 6.882812 -25.953125 7.015625 -25.742188 7.078125 -25.453125 C 7.109375 -25.429688 7.195312 -25.140625 7.34375 -24.578125 C 7.488281 -24.015625 7.679688 -23.296875 7.921875 -22.421875 C 8.160156 -21.546875 8.414062 -20.617188 8.6875 -19.640625 C 8.96875 -18.671875 9.226562 -17.753906 9.46875 -16.890625 C 9.707031 -16.035156 9.914062 -15.332031 10.09375 -14.78125 C 10.269531 -14.238281 10.367188 -13.953125 10.390625 -13.921875 C 10.660156 -14.929688 10.878906 -15.765625 11.046875 -16.421875 C 11.222656 -17.078125 11.375 -17.65625 11.5 -18.15625 C 11.625 -18.664062 11.757812 -19.195312 11.90625 -19.75 C 12.0625 -20.3125 12.253906 -20.992188 12.484375 -21.796875 C 12.710938 -22.597656 13 -23.644531 13.34375 -24.9375 C 13.457031 -25.300781 13.550781 -25.585938 13.625 -25.796875 C 13.707031 -26.003906 13.875 -26.144531 14.125 -26.21875 C 14.382812 -26.300781 14.800781 -26.347656 15.375 -26.359375 C 15.945312 -26.367188 16.757812 -26.375 17.8125 -26.375 C 18.550781 -26.375 19.019531 -26.367188 19.21875 -26.359375 C 19.425781 -26.347656 19.585938 -26.320312 19.703125 -26.28125 C 20.046875 -26.226562 20.21875 -26.097656 20.21875 -25.890625 C 20.21875 -25.546875 19.972656 -24.351562 19.484375 -22.3125 C 18.992188 -20.28125 18.3125 -17.53125 17.4375 -14.0625 C 16.5625 -10.601562 15.539062 -6.566406 14.375 -1.953125 C 14.21875 -1.359375 14.117188 -0.910156 14.078125 -0.609375 C 14.046875 -0.316406 13.953125 -0.125 13.796875 -0.03125 C 13.648438 0.0625 13.351562 0.109375 12.90625 0.109375 C 12.46875 0.109375 11.742188 0.109375 10.734375 0.109375 C 9.535156 0.109375 8.644531 0.113281 8.0625 0.125 C 7.476562 0.132812 7.085938 0.101562 6.890625 0.03125 C 6.703125 -0.03125 6.582031 -0.191406 6.53125 -0.453125 C 6.46875 -0.835938 6.300781 -1.570312 6.03125 -2.65625 C 5.769531 -3.75 5.457031 -5.046875 5.09375 -6.546875 C 4.726562 -8.046875 4.328125 -9.644531 3.890625 -11.34375 C 3.453125 -13.039062 3.023438 -14.71875 2.609375 -16.375 C 2.203125 -18.039062 1.828125 -19.566406 1.484375 -20.953125 C 1.140625 -22.347656 0.863281 -23.484375 0.65625 -24.359375 C 0.445312 -25.242188 0.34375 -25.742188 0.34375 -25.859375 Z M 0.34375 -25.859375 "/></g></g></g><g fill="#ff3131" fill-opacity="1"><g transform="translate(59.78881, 181.061181)"><g><path d="M 6.03125 -8.953125 C 7.394531 -8.335938 8.519531 -7.832031 9.40625 -7.4375 C 10.300781 -7.039062 11.007812 -6.71875 11.53125 -6.46875 C 12.0625 -6.21875 12.453125 -6 12.703125 -5.8125 C 12.960938 -5.632812 13.128906 -5.453125 13.203125 -5.265625 C 13.285156 -5.078125 13.316406 -4.851562 13.296875 -4.59375 C 13.285156 -4.332031 13.28125 -4 13.28125 -3.59375 C 13.28125 -3.21875 13.253906 -2.835938 13.203125 -2.453125 C 13.160156 -2.140625 13.066406 -1.984375 12.921875 -1.984375 C 12.859375 -1.984375 12.6875 -2.03125 12.40625 -2.125 C 12.132812 -2.21875 11.828125 -2.328125 11.484375 -2.453125 C 11.140625 -2.578125 10.832031 -2.695312 10.5625 -2.8125 C 10.289062 -2.925781 10.125 -2.988281 10.0625 -3 C 8.082031 -3.769531 6.46875 -4.394531 5.21875 -4.875 C 3.976562 -5.351562 3.007812 -5.726562 2.3125 -6 C 1.625 -6.269531 1.132812 -6.484375 0.84375 -6.640625 C 0.550781 -6.796875 0.375 -6.9375 0.3125 -7.0625 C 0.257812 -7.1875 0.234375 -7.34375 0.234375 -7.53125 C 0.234375 -7.53125 0.238281 -7.695312 0.25 -8.03125 C 0.257812 -8.375 0.265625 -8.835938 0.265625 -9.421875 C 0.265625 -9.660156 0.257812 -9.90625 0.25 -10.15625 C 0.238281 -10.40625 0.234375 -10.53125 0.234375 -10.53125 C 0.234375 -10.914062 0.4375 -11.191406 0.84375 -11.359375 C 3.019531 -12.210938 4.820312 -12.914062 6.25 -13.46875 C 7.6875 -14.03125 8.832031 -14.476562 9.6875 -14.8125 C 10.550781 -15.15625 11.195312 -15.410156 11.625 -15.578125 C 12.0625 -15.742188 12.363281 -15.851562 12.53125 -15.90625 C 12.695312 -15.96875 12.820312 -16 12.90625 -16 C 13.03125 -16 13.125 -15.914062 13.1875 -15.75 C 13.25 -15.582031 13.28125 -15.128906 13.28125 -14.390625 C 13.28125 -14.109375 13.269531 -13.820312 13.25 -13.53125 C 13.238281 -13.25 13.222656 -12.96875 13.203125 -12.6875 C 13.191406 -12.4375 13.0625 -12.265625 12.8125 -12.171875 C 11.53125 -11.535156 10.46875 -11.023438 9.625 -10.640625 C 8.78125 -10.253906 8.101562 -9.953125 7.59375 -9.734375 C 7.09375 -9.523438 6.722656 -9.363281 6.484375 -9.25 C 6.253906 -9.132812 6.101562 -9.035156 6.03125 -8.953125 Z M 6.03125 -8.953125 "/></g></g></g><g fill="#ff3131" fill-opacity="1"><g transform="translate(296.704029, 218.771428)"><g><path d="M 8.546875 -16.875 L 2.265625 0 L 0.234375 0 L 6.515625 -16.875 Z M 8.546875 -16.875 "/></g></g></g><g fill="#ff3131" fill-opacity="1"><g transform="translate(305.491447, 218.771428)"><g><path d="M 7.4375 -8.984375 C 7.40625 -9.046875 7.207031 -9.160156 6.84375 -9.328125 C 6.488281 -9.503906 6.039062 -9.707031 5.5 -9.9375 C 4.96875 -10.175781 4.40625 -10.425781 3.8125 -10.6875 C 3.21875 -10.945312 2.65625 -11.203125 2.125 -11.453125 C 1.601562 -11.710938 1.175781 -11.9375 0.84375 -12.125 C 0.519531 -12.320312 0.347656 -12.476562 0.328125 -12.59375 C 0.296875 -13.082031 0.269531 -13.570312 0.25 -14.0625 C 0.226562 -14.5625 0.25 -15.054688 0.3125 -15.546875 C 0.351562 -15.859375 0.445312 -16.015625 0.59375 -16.015625 C 0.65625 -16.015625 0.816406 -15.96875 1.078125 -15.875 C 1.335938 -15.789062 1.625 -15.6875 1.9375 -15.5625 C 2.25 -15.4375 2.53125 -15.328125 2.78125 -15.234375 C 3.039062 -15.140625 3.191406 -15.078125 3.234375 -15.046875 C 4.929688 -14.390625 6.363281 -13.832031 7.53125 -13.375 C 8.695312 -12.925781 9.644531 -12.5625 10.375 -12.28125 C 11.113281 -12 11.679688 -11.769531 12.078125 -11.59375 C 12.484375 -11.425781 12.769531 -11.285156 12.9375 -11.171875 C 13.101562 -11.066406 13.203125 -10.960938 13.234375 -10.859375 C 13.265625 -10.753906 13.28125 -10.625 13.28125 -10.46875 C 13.28125 -9.632812 13.28125 -8.972656 13.28125 -8.484375 C 13.289062 -7.992188 13.285156 -7.628906 13.265625 -7.390625 C 13.242188 -7.160156 13.1875 -6.992188 13.09375 -6.890625 C 13.007812 -6.796875 12.875 -6.710938 12.6875 -6.640625 C 10.445312 -5.773438 8.597656 -5.050781 7.140625 -4.46875 C 5.691406 -3.894531 4.539062 -3.4375 3.6875 -3.09375 C 2.832031 -2.757812 2.195312 -2.515625 1.78125 -2.359375 C 1.363281 -2.203125 1.078125 -2.097656 0.921875 -2.046875 C 0.773438 -2.003906 0.664062 -1.984375 0.59375 -1.984375 C 0.445312 -1.984375 0.351562 -2.148438 0.3125 -2.484375 C 0.289062 -2.648438 0.269531 -2.835938 0.25 -3.046875 C 0.238281 -3.265625 0.234375 -3.453125 0.234375 -3.609375 C 0.234375 -4.242188 0.242188 -4.707031 0.265625 -5 C 0.296875 -5.289062 0.347656 -5.484375 0.421875 -5.578125 C 0.503906 -5.679688 0.609375 -5.765625 0.734375 -5.828125 C 0.734375 -5.828125 0.894531 -5.90625 1.21875 -6.0625 C 1.539062 -6.226562 1.957031 -6.425781 2.46875 -6.65625 C 2.976562 -6.894531 3.515625 -7.144531 4.078125 -7.40625 C 4.648438 -7.675781 5.191406 -7.929688 5.703125 -8.171875 C 6.210938 -8.410156 6.628906 -8.601562 6.953125 -8.75 C 7.273438 -8.90625 7.4375 -8.984375 7.4375 -8.984375 Z M 7.4375 -8.984375 "/></g></g></g></svg>